<svg width="1450" height="3376" viewBox="0 0 1450 3376" fill="none" xmlns="http://www.w3.org/2000/svg">
<path d="M-39.7208 2884.84C-35.0286 2878.9 -25.3959 2877.53 -13.3609 2880.41C-1.37242 2883.28 12.7991 2890.32 26.292 2900.89C39.7848 2911.45 50.0062 2923.5 55.6346 2934.43C61.2849 2945.4 62.2227 2955.04 57.5305 2960.99C52.8383 2966.93 43.2056 2968.3 31.1705 2965.42C19.1821 2962.55 5.01059 2955.51 -8.4823 2944.94C-21.9752 2934.38 -32.1965 2922.33 -37.8249 2911.4C-43.4753 2900.43 -44.413 2890.79 -39.7208 2884.84Z" stroke="url(#paint0_linear_122_9)"/>
<path d="M-55.0529 2831.32C-51.2028 2826.44 -45.258 2823.53 -37.7368 2822.48C-30.2123 2821.43 -21.1416 2822.25 -11.1087 2824.82C8.95574 2829.95 32.7738 2842.05 55.5702 2859.89C78.3667 2877.74 95.7876 2897.94 105.534 2916.14C110.408 2925.25 113.352 2933.83 114.104 2941.36C114.855 2948.89 113.416 2955.33 109.566 2960.21C105.716 2965.09 99.7712 2968 92.2501 2969.05C84.7256 2970.1 75.6549 2969.28 65.6219 2966.71C45.5575 2961.57 21.7395 2949.48 -1.057 2931.63C-23.8535 2913.78 -41.2743 2893.59 -51.0211 2875.38C-55.8949 2866.28 -58.8384 2857.69 -59.5904 2850.17C-60.3421 2842.64 -58.9031 2836.2 -55.0529 2831.32Z" stroke="url(#paint1_linear_122_9)"/>
<path d="M-70.3849 2777.8C-65.0281 2771.01 -56.7064 2767.01 -46.1732 2765.64C-35.6368 2764.27 -22.922 2765.53 -8.85185 2769.23C19.2867 2776.63 52.7499 2793.77 84.8487 2818.9C116.948 2844.03 141.567 2872.37 155.432 2897.86C162.365 2910.6 166.597 2922.61 167.746 2933.13C168.894 2943.65 166.959 2952.64 161.602 2959.43C156.245 2966.22 147.924 2970.21 137.39 2971.58C126.854 2972.96 114.139 2971.7 100.069 2967.99C71.9305 2960.59 38.4674 2943.46 6.3685 2918.32C-25.7304 2893.19 -50.3499 2864.85 -64.2151 2839.37C-71.1481 2826.62 -75.3803 2814.62 -76.5289 2804.1C-77.6771 2793.58 -75.7416 2784.58 -70.3849 2777.8Z" stroke="url(#paint2_linear_122_9)"/>
<path d="M-85.7169 2724.27C-78.8527 2715.58 -68.1528 2710.49 -54.6077 2708.8C-41.0595 2707.11 -24.7008 2708.81 -6.59376 2713.64C29.6185 2723.31 72.7262 2745.49 114.127 2777.91C155.528 2810.32 187.346 2846.8 205.329 2879.57C214.322 2895.95 219.843 2911.38 221.388 2924.89C222.933 2938.4 220.502 2949.95 213.638 2958.65C206.774 2967.35 196.074 2972.43 182.529 2974.12C168.98 2975.81 152.622 2974.11 134.515 2969.28C98.3024 2959.61 55.1947 2937.43 13.7938 2905.01C-27.607 2872.6 -59.4249 2836.12 -77.4084 2803.35C-86.4007 2786.97 -91.9218 2771.54 -93.4672 2758.03C-95.0123 2744.52 -92.5812 2732.97 -85.7169 2724.27Z" stroke="url(#paint3_linear_122_9)"/>
<path d="M-101.052 2670.75C-92.6799 2660.14 -79.6013 2653.98 -63.0443 2651.96C-46.4843 2649.94 -26.4818 2652.08 -4.33802 2658.05C39.9476 2669.99 92.6996 2697.21 143.402 2736.91C194.105 2776.61 233.121 2821.24 255.223 2861.28C266.274 2881.3 273.085 2900.15 275.027 2916.65C276.969 2933.15 274.043 2947.26 265.671 2957.87C257.298 2968.48 244.22 2974.64 227.663 2976.66C211.103 2978.67 191.1 2976.53 168.957 2970.56C124.671 2958.63 71.9189 2931.4 21.2162 2891.7C-29.4866 2852.01 -68.5027 2807.38 -90.6045 2767.34C-101.656 2747.32 -108.466 2728.47 -110.409 2711.96C-112.351 2695.46 -109.424 2681.35 -101.052 2670.75Z" stroke="url(#paint4_linear_122_9)"/>
<path d="M-116.384 2617.22C-106.503 2604.7 -91.0459 2597.46 -71.477 2595.12C-51.9053 2592.78 -28.259 2595.36 -2.07857 2602.47C50.2803 2616.67 112.677 2648.94 172.681 2695.92C232.685 2742.9 278.9 2795.67 305.12 2842.99C318.23 2866.65 326.33 2888.92 328.669 2908.41C331.009 2927.9 327.587 2944.57 317.707 2957.09C307.826 2969.61 292.369 2976.85 272.8 2979.19C253.228 2981.53 229.582 2978.95 203.401 2971.85C151.043 2957.64 88.6463 2925.38 28.6418 2878.39C-31.3627 2831.41 -77.5769 2778.65 -103.797 2731.33C-116.908 2707.67 -125.007 2685.39 -127.346 2665.9C-129.686 2646.41 -126.264 2629.74 -116.384 2617.22Z" stroke="url(#paint5_linear_122_9)"/>
<path d="M-131.716 2563.7C-120.327 2549.27 -102.49 2540.94 -79.9097 2538.28C-57.3262 2535.62 -30.0362 2538.64 0.180905 2546.88C60.6128 2563.35 132.653 2600.66 201.959 2654.92C271.266 2709.19 324.678 2770.1 355.016 2824.69C370.186 2851.99 379.575 2877.69 382.311 2900.18C385.048 2922.66 381.131 2941.89 369.742 2956.31C358.354 2970.74 340.517 2979.07 317.936 2981.73C295.353 2984.39 268.063 2981.37 237.846 2973.13C177.414 2956.66 105.373 2919.35 36.0673 2865.09C-33.2389 2810.82 -86.6513 2749.91 -116.99 2695.32C-132.159 2668.02 -141.548 2642.32 -144.285 2619.83C-147.021 2597.35 -143.104 2578.13 -131.716 2563.7Z" stroke="url(#paint6_linear_122_9)"/>
<path d="M-147.048 2510.17C-134.151 2493.83 -113.935 2484.42 -88.3421 2481.44C-62.7469 2478.46 -31.8131 2481.92 2.44056 2491.29C70.9455 2510.03 152.63 2552.38 231.238 2613.93C309.846 2675.48 370.456 2744.53 404.913 2806.4C422.142 2837.34 432.82 2866.46 435.953 2891.94C439.087 2917.41 434.675 2939.19 421.778 2955.53C408.882 2971.87 388.665 2981.28 363.073 2984.27C337.478 2987.25 306.544 2983.79 272.29 2974.42C203.785 2955.68 122.101 2913.32 43.4928 2851.78C-35.115 2790.23 -95.7255 2721.18 -130.182 2659.3C-147.411 2628.36 -158.089 2599.24 -161.223 2573.77C-164.356 2548.3 -159.945 2526.51 -147.048 2510.17Z" stroke="url(#paint7_linear_122_9)"/>
<path d="M-162.379 2456.65C-147.974 2438.4 -125.378 2427.9 -96.7741 2424.6C-68.1672 2421.3 -33.5896 2425.2 4.70051 2435.7C81.2786 2456.71 172.607 2504.11 260.517 2572.94C348.426 2641.77 416.235 2718.96 454.81 2788.11C474.098 2822.69 486.065 2855.23 489.596 2883.7C493.126 2912.16 488.22 2936.51 473.815 2954.76C459.409 2973.01 436.814 2983.5 408.209 2986.8C379.602 2990.11 345.025 2986.21 306.735 2975.7C230.157 2954.7 138.828 2907.3 50.9186 2838.47C-36.9909 2769.64 -104.799 2692.44 -143.375 2623.29C-162.663 2588.71 -174.629 2556.17 -178.16 2527.71C-181.691 2499.24 -176.785 2474.9 -162.379 2456.65Z" stroke="url(#paint8_linear_122_9)"/>
<path d="M-177.711 2403.12C-161.797 2382.96 -136.822 2371.39 -105.206 2367.76C-73.5875 2364.14 -35.3663 2368.48 6.96039 2380.11C91.6115 2403.39 192.584 2455.83 289.795 2531.94C387.006 2608.05 462.013 2693.39 504.706 2769.82C526.054 2808.04 539.31 2844 543.238 2875.46C547.166 2906.91 541.764 2933.82 525.851 2953.98C509.937 2974.14 484.962 2985.72 453.346 2989.34C421.727 2992.96 383.506 2988.63 341.179 2976.99C256.528 2953.71 155.555 2901.27 58.3442 2825.16C-38.867 2749.05 -113.874 2663.71 -156.567 2587.28C-177.914 2549.06 -191.17 2513.1 -195.098 2481.64C-199.026 2450.19 -193.625 2423.29 -177.711 2403.12Z" stroke="url(#paint9_linear_122_9)"/>
<path d="M-193.043 2349.6C-175.621 2327.53 -148.266 2314.87 -113.638 2310.92C-79.0081 2306.98 -37.1431 2311.75 9.22008 2324.53C101.944 2350.07 212.561 2407.56 319.074 2490.95C425.586 2574.34 507.791 2667.83 554.603 2751.53C578.009 2793.39 592.554 2832.77 596.88 2867.22C601.205 2901.66 595.309 2931.13 577.886 2953.2C560.464 2975.27 533.109 2987.93 498.482 2991.88C463.851 2995.82 421.986 2991.04 375.623 2978.27C282.899 2952.73 172.282 2895.24 65.7695 2811.85C-40.7432 2728.46 -122.948 2634.97 -169.759 2551.27C-193.166 2509.41 -207.711 2470.02 -212.036 2435.58C-216.362 2401.13 -210.465 2371.67 -193.043 2349.6Z" stroke="url(#paint10_linear_122_9)"/>
<path d="M-208.375 2296.08C-189.444 2272.09 -159.71 2258.35 -122.071 2254.08C-84.4284 2249.82 -38.9197 2255.03 11.48 2268.94C112.277 2296.75 232.538 2359.28 348.352 2449.96C464.166 2540.63 553.569 2642.26 604.499 2733.24C629.965 2778.73 645.799 2821.55 650.522 2858.98C655.244 2896.42 648.853 2928.44 629.922 2952.42C610.992 2976.4 581.257 2990.15 543.618 2994.41C505.976 2998.68 460.467 2993.46 410.067 2979.56C309.27 2951.75 189.009 2889.22 73.1951 2798.54C-42.6193 2707.86 -132.022 2606.24 -182.952 2515.26C-208.417 2469.76 -224.252 2426.95 -228.974 2389.52C-233.697 2352.08 -227.306 2320.06 -208.375 2296.08Z" stroke="url(#paint11_linear_122_9)"/>
<path d="M-223.707 2242.55C-203.268 2216.66 -171.154 2201.83 -130.503 2197.24C-89.8487 2192.65 -40.6962 2198.31 13.7399 2213.35C122.61 2243.43 252.515 2311 377.631 2408.96C502.747 2506.92 599.347 2616.69 654.396 2714.95C681.92 2764.08 699.044 2810.31 704.164 2850.74C709.283 2891.17 702.398 2925.75 681.958 2951.64C661.519 2977.53 629.405 2992.36 588.754 2996.95C548.1 3001.54 498.948 2995.88 444.511 2980.84C335.641 2950.77 205.737 2883.19 80.6206 2785.23C-44.4953 2687.27 -141.096 2577.51 -196.144 2479.24C-223.669 2430.11 -240.792 2383.88 -245.912 2343.45C-251.032 2303.03 -244.146 2268.45 -223.707 2242.55Z" stroke="url(#paint12_linear_122_9)"/>
<path d="M-239.039 2189.03C-217.091 2161.22 -182.597 2145.31 -138.934 2140.4C-95.2688 2135.49 -42.4727 2141.59 15.9999 2157.76C132.943 2190.11 272.492 2262.73 406.909 2367.97C541.327 2473.21 645.125 2591.12 704.292 2696.66C733.876 2749.43 752.289 2799.09 757.806 2842.5C763.322 2885.92 755.942 2923.06 733.994 2950.86C712.046 2978.67 677.553 2994.58 633.89 2999.49C590.224 3004.4 537.428 2998.3 478.956 2982.13C362.013 2949.78 222.464 2877.16 88.0462 2771.92C-46.3713 2666.68 -150.17 2548.77 -209.337 2443.23C-238.92 2390.46 -257.333 2340.8 -262.85 2297.39C-268.367 2253.97 -260.987 2216.83 -239.039 2189.03Z" stroke="url(#paint13_linear_122_9)"/>
<path d="M-254.371 2135.5C-230.914 2105.79 -194.041 2088.8 -147.366 2083.56C-100.689 2078.33 -44.2492 2084.87 18.2599 2102.18C143.276 2136.79 292.469 2214.45 436.188 2326.97C579.907 2439.5 690.904 2565.55 754.188 2678.37C785.831 2734.78 805.533 2787.86 811.448 2834.26C817.362 2880.67 809.487 2920.37 786.03 2950.08C762.574 2979.8 725.701 2996.79 679.026 3002.02C632.349 3007.26 575.909 3000.72 513.4 2983.41C388.384 2948.8 239.191 2871.14 95.4717 2758.61C-48.2474 2646.09 -159.244 2520.04 -222.529 2407.22C-254.172 2350.81 -273.874 2297.73 -279.788 2251.32C-285.702 2204.92 -277.827 2165.22 -254.371 2135.5Z" stroke="url(#paint14_linear_122_9)"/>
<path d="M-269.702 2081.98C-244.737 2050.35 -205.485 2032.28 -155.798 2026.72C-106.109 2021.17 -46.0255 2028.15 20.52 2046.59C153.609 2083.47 312.446 2166.17 465.466 2285.98C618.487 2405.79 736.682 2539.98 804.085 2660.08C837.787 2720.13 858.778 2776.63 865.09 2826.03C871.401 2875.42 863.031 2917.68 838.066 2949.3C813.101 2980.93 773.849 2999.01 724.162 3004.56C674.473 3010.11 614.389 3003.14 547.844 2984.7C414.755 2947.82 255.918 2865.11 102.897 2745.3C-50.1232 2625.5 -168.318 2491.3 -235.721 2371.21C-269.423 2311.16 -290.414 2254.66 -296.726 2205.26C-303.037 2155.86 -294.667 2113.61 -269.702 2081.98Z" stroke="url(#paint15_linear_122_9)"/>
<path d="M-285.034 2028.46C-258.561 1994.92 -216.928 1975.76 -164.23 1969.88C-111.529 1964.01 -47.8019 1971.43 22.7801 1991C163.942 2030.15 332.423 2117.9 494.745 2244.99C657.067 2372.08 782.46 2514.41 853.981 2641.79C889.743 2705.47 912.023 2765.4 918.732 2817.79C925.44 2870.17 916.576 2914.99 890.102 2948.53C863.629 2982.06 821.996 3001.22 769.298 3007.1C716.597 3012.97 652.87 3005.56 582.288 2985.98C441.126 2946.83 272.645 2859.08 110.323 2731.99C-51.9993 2604.9 -177.392 2462.57 -248.913 2335.2C-284.675 2271.51 -306.955 2211.59 -313.664 2159.2C-320.372 2106.81 -311.508 2061.99 -285.034 2028.46Z" stroke="url(#paint16_linear_122_9)"/>
<path d="M-300.366 1974.93C-272.384 1939.48 -228.372 1919.24 -172.662 1913.05C-116.949 1906.85 -49.5783 1914.7 25.0402 1935.41C174.275 1976.83 352.4 2069.62 524.024 2203.99C695.647 2338.37 828.238 2488.85 903.878 2623.5C941.698 2690.82 965.268 2754.17 972.374 2809.55C979.48 2864.93 970.12 2912.3 942.138 2947.75C914.156 2983.2 870.144 3003.44 814.434 3009.63C758.721 3015.83 691.351 3007.98 616.732 2987.27C467.497 2945.85 289.372 2853.06 117.749 2718.69C-53.8752 2584.31 -186.466 2433.83 -262.106 2299.18C-299.926 2231.86 -323.496 2168.51 -330.602 2113.13C-337.707 2057.75 -328.348 2010.38 -300.366 1974.93Z" stroke="url(#paint17_linear_122_9)"/>
<path d="M-315.698 1921.41C-286.207 1884.05 -239.815 1862.72 -181.094 1856.21C-122.369 1849.69 -51.3548 1857.98 27.3002 1879.82C184.608 1923.51 372.377 2021.34 553.302 2163C734.228 2304.65 874.016 2463.28 953.774 2605.2C993.654 2676.17 1018.51 2742.94 1026.02 2801.31C1033.52 2859.68 1023.66 2909.61 994.174 2946.97C964.684 2984.33 918.292 3005.65 859.57 3012.17C800.846 3018.69 729.831 3010.39 651.176 2988.55C493.868 2944.87 306.1 2847.03 125.174 2705.38C-55.7513 2563.72 -195.54 2405.1 -275.298 2263.17C-315.178 2192.21 -340.036 2125.44 -347.54 2067.07C-355.043 2008.7 -345.189 1958.77 -315.698 1921.41Z" stroke="url(#paint18_linear_122_9)"/>
<path d="M-331.03 1867.88C-300.031 1828.61 -251.259 1806.21 -189.525 1799.37C-127.789 1792.53 -53.1311 1801.26 29.5603 1824.24C194.941 1870.19 392.354 1973.07 582.581 2122.01C772.808 2270.94 919.794 2437.71 1003.67 2586.91C1045.61 2661.52 1071.76 2731.71 1079.66 2793.07C1087.56 2854.43 1077.21 2906.92 1046.21 2946.19C1015.21 2985.46 966.439 3007.87 904.706 3014.71C842.97 3021.55 768.312 3012.81 685.62 2989.84C520.24 2943.89 322.827 2841 132.6 2692.07C-57.6273 2543.13 -204.614 2376.36 -288.49 2227.16C-330.429 2152.56 -356.577 2082.37 -364.477 2021C-372.378 1959.65 -362.029 1907.16 -331.03 1867.88Z" stroke="url(#paint19_linear_122_9)"/>
<path d="M1488.92 1306.78C1484.16 1312.66 1474.51 1313.91 1462.51 1310.88C1450.56 1307.86 1436.48 1300.63 1423.12 1289.9C1409.76 1279.17 1399.69 1266.99 1394.2 1255.99C1388.69 1244.95 1387.88 1235.3 1392.64 1229.41C1397.41 1223.53 1407.06 1222.28 1419.06 1225.31C1431.01 1228.33 1445.09 1235.56 1458.45 1246.29C1471.81 1257.02 1481.87 1269.2 1487.36 1280.2C1492.88 1291.24 1493.69 1300.89 1488.92 1306.78Z" stroke="url(#paint20_linear_122_9)"/>
<path d="M1503.58 1360.49C1499.67 1365.32 1493.69 1368.16 1486.15 1369.11C1478.62 1370.07 1469.56 1369.13 1459.56 1366.43C1439.56 1361.05 1415.9 1348.66 1393.33 1330.52C1370.76 1312.39 1353.59 1291.97 1344.08 1273.64C1339.32 1264.48 1336.48 1255.86 1335.83 1248.32C1335.17 1240.79 1336.69 1234.36 1340.6 1229.53C1344.51 1224.71 1350.49 1221.87 1358.03 1220.91C1365.56 1219.96 1374.62 1220.9 1384.62 1223.59C1404.62 1228.98 1428.29 1241.37 1450.85 1259.5C1473.42 1277.64 1490.59 1298.05 1500.1 1316.38C1504.86 1325.54 1507.7 1334.16 1508.36 1341.7C1509.01 1349.24 1507.49 1355.66 1503.58 1360.49Z" stroke="url(#paint21_linear_122_9)"/>
<path d="M1518.24 1414.2C1512.79 1420.92 1504.42 1424.81 1493.87 1426.05C1483.32 1427.29 1470.62 1425.87 1456.6 1421.99C1428.56 1414.23 1395.31 1396.68 1363.53 1371.14C1331.75 1345.61 1307.49 1316.96 1293.95 1291.3C1287.18 1278.47 1283.1 1266.41 1282.08 1255.88C1281.07 1245.35 1283.12 1236.37 1288.56 1229.66C1294 1222.94 1302.37 1219.05 1312.92 1217.81C1323.48 1216.57 1336.17 1217.99 1350.2 1221.87C1378.24 1229.63 1411.48 1247.18 1443.26 1272.72C1475.04 1298.25 1499.3 1326.9 1512.84 1352.56C1519.61 1365.39 1523.7 1377.45 1524.71 1387.98C1525.73 1398.51 1523.68 1407.49 1518.24 1414.2Z" stroke="url(#paint22_linear_122_9)"/>
<path d="M1532.89 1467.92C1525.92 1476.53 1515.15 1481.47 1501.59 1482.99C1488.02 1484.52 1471.68 1482.61 1453.64 1477.55C1417.55 1467.42 1374.73 1444.7 1333.74 1411.76C1292.75 1378.83 1261.4 1341.95 1243.83 1308.96C1235.04 1292.47 1229.72 1276.97 1228.34 1263.44C1226.97 1249.91 1229.54 1238.39 1236.52 1229.78C1243.49 1221.17 1254.25 1216.22 1267.82 1214.7C1281.39 1213.18 1297.72 1215.09 1315.77 1220.15C1351.86 1230.28 1394.68 1253 1435.67 1285.93C1476.66 1318.87 1508.01 1355.75 1525.58 1388.74C1534.37 1405.23 1539.69 1420.73 1541.07 1434.26C1542.44 1447.79 1539.86 1459.31 1532.89 1467.92Z" stroke="url(#paint23_linear_122_9)"/>
<path d="M1547.55 1521.63C1539.04 1532.13 1525.89 1538.13 1509.31 1539.94C1492.72 1541.74 1472.75 1539.35 1450.68 1533.1C1406.55 1520.61 1354.15 1492.72 1303.95 1452.39C1253.75 1412.05 1215.3 1366.94 1193.71 1326.62C1182.91 1306.46 1176.34 1287.52 1174.6 1271C1172.87 1254.48 1175.97 1240.4 1184.48 1229.9C1192.98 1219.4 1206.14 1213.4 1222.72 1211.6C1239.31 1209.79 1259.28 1212.18 1281.35 1218.43C1325.48 1230.93 1377.88 1258.81 1428.08 1299.15C1478.28 1339.48 1516.73 1384.6 1538.32 1424.91C1549.12 1445.07 1555.69 1464.01 1557.42 1480.53C1559.16 1497.06 1556.05 1511.13 1547.55 1521.63Z" stroke="url(#paint24_linear_122_9)"/>
<path d="M1562.2 1575.35C1552.17 1587.74 1536.62 1594.79 1517.02 1596.88C1497.42 1598.97 1473.81 1596.09 1447.72 1588.66C1395.55 1573.79 1333.56 1540.74 1274.16 1493.01C1214.75 1445.27 1169.2 1391.93 1143.58 1344.28C1130.77 1320.46 1122.95 1298.08 1120.86 1278.56C1118.77 1259.04 1122.4 1242.42 1132.44 1230.02C1142.48 1217.63 1158.02 1210.58 1177.62 1208.49C1197.22 1206.4 1220.83 1209.28 1246.92 1216.71C1299.1 1231.58 1361.08 1264.63 1420.49 1312.36C1479.89 1360.1 1525.44 1413.44 1551.06 1461.09C1563.87 1484.91 1571.69 1507.29 1573.78 1526.81C1575.87 1546.33 1572.24 1562.95 1562.2 1575.35Z" stroke="url(#paint25_linear_122_9)"/>
<path d="M1576.86 1629.06C1565.29 1643.34 1547.35 1651.44 1524.74 1653.82C1502.12 1656.19 1474.87 1652.83 1444.76 1644.21C1384.54 1626.98 1312.98 1588.76 1244.36 1533.63C1175.75 1478.49 1123.11 1416.91 1093.46 1361.94C1078.64 1334.45 1069.57 1308.64 1067.12 1286.12C1064.67 1263.61 1068.83 1244.43 1080.4 1230.15C1091.97 1215.86 1109.91 1207.76 1132.52 1205.38C1155.13 1203.01 1182.38 1206.37 1212.49 1214.99C1272.71 1232.22 1344.28 1270.44 1412.89 1325.58C1481.51 1380.71 1534.15 1442.29 1563.8 1497.26C1578.62 1524.75 1587.68 1550.57 1590.14 1573.08C1592.59 1595.6 1588.43 1614.78 1576.86 1629.06Z" stroke="url(#paint26_linear_122_9)"/>
<path d="M1591.51 1682.77C1578.41 1698.95 1558.08 1708.1 1532.45 1710.76C1506.82 1713.42 1475.93 1709.57 1441.8 1699.77C1373.54 1680.17 1292.39 1636.78 1214.57 1574.25C1136.74 1511.72 1077.01 1441.9 1043.34 1379.6C1026.5 1348.45 1016.19 1319.19 1013.38 1293.68C1010.57 1268.17 1015.25 1246.44 1028.35 1230.27C1041.46 1214.09 1061.79 1204.94 1087.42 1202.28C1113.05 1199.62 1143.94 1203.47 1178.07 1213.27C1246.33 1232.88 1327.48 1276.26 1405.3 1338.79C1483.13 1401.32 1542.86 1471.14 1576.53 1533.44C1593.37 1564.59 1603.68 1593.85 1606.49 1619.36C1609.3 1644.87 1604.62 1666.6 1591.51 1682.77Z" stroke="url(#paint27_linear_122_9)"/>
<path d="M1606.17 1736.49C1591.53 1754.55 1568.81 1764.76 1540.16 1767.7C1511.52 1770.64 1476.99 1766.31 1438.84 1755.32C1362.53 1733.35 1271.81 1684.8 1184.77 1614.87C1097.74 1544.94 1030.91 1466.89 993.213 1397.26C974.363 1362.44 962.807 1329.75 959.636 1301.24C956.465 1272.74 961.678 1248.46 976.313 1230.39C990.947 1212.32 1013.67 1202.11 1042.32 1199.17C1070.96 1196.23 1105.49 1200.57 1143.64 1211.55C1219.95 1233.52 1310.67 1282.07 1397.71 1352.01C1484.74 1421.94 1551.57 1499.98 1589.27 1569.62C1608.12 1604.43 1619.67 1637.13 1622.85 1665.63C1626.02 1694.14 1620.8 1718.42 1606.17 1736.49Z" stroke="url(#paint28_linear_122_9)"/>
<path d="M1620.82 1790.2C1604.66 1810.16 1579.54 1821.42 1547.88 1824.64C1516.22 1827.87 1478.05 1823.05 1435.88 1810.88C1351.53 1786.54 1251.22 1732.82 1154.98 1655.49C1058.74 1578.16 984.814 1491.88 943.089 1414.92C922.226 1376.44 909.425 1340.31 905.894 1308.8C902.364 1277.3 908.104 1250.47 924.271 1230.51C940.438 1210.55 965.557 1199.29 997.216 1196.07C1028.88 1192.84 1067.04 1197.66 1109.22 1209.83C1193.57 1234.17 1293.87 1287.89 1390.11 1365.22C1486.36 1442.55 1560.28 1528.83 1602.01 1605.79C1622.87 1644.27 1635.67 1680.4 1639.2 1711.91C1642.73 1743.41 1636.99 1770.24 1620.82 1790.2Z" stroke="url(#paint29_linear_122_9)"/>
<path d="M1635.48 1843.91C1617.78 1865.76 1590.27 1878.08 1555.59 1881.59C1520.92 1885.09 1479.11 1879.79 1432.92 1866.43C1340.52 1839.72 1230.64 1780.84 1125.19 1696.11C1019.74 1611.38 938.717 1516.87 892.966 1432.58C870.09 1390.43 856.043 1350.86 852.153 1316.36C848.263 1281.87 854.53 1252.48 872.23 1230.63C889.929 1208.78 917.441 1196.47 952.116 1192.96C986.794 1189.45 1028.59 1194.76 1074.79 1208.11C1167.19 1234.82 1277.07 1293.7 1382.52 1378.43C1487.97 1463.17 1568.99 1557.68 1614.74 1641.97C1637.62 1684.11 1651.67 1723.68 1655.56 1758.18C1659.45 1792.68 1653.18 1822.06 1635.48 1843.91Z" stroke="url(#paint30_linear_122_9)"/>
<path d="M1650.13 1897.62C1630.9 1921.37 1601 1934.73 1563.31 1938.53C1525.61 1942.32 1480.17 1936.53 1429.95 1921.99C1329.52 1892.91 1210.05 1828.86 1095.39 1736.73C980.733 1644.6 892.62 1541.86 842.843 1450.24C817.953 1404.43 802.661 1361.42 798.411 1323.92C794.161 1286.43 800.956 1254.5 820.188 1230.75C839.42 1207.01 869.325 1193.64 907.016 1189.85C944.709 1186.06 990.148 1191.85 1040.37 1206.39C1140.81 1235.47 1260.27 1299.52 1374.93 1391.65C1489.59 1483.78 1577.7 1586.52 1627.48 1678.14C1652.37 1723.95 1667.66 1766.96 1671.91 1804.45C1676.16 1841.95 1669.37 1873.88 1650.13 1897.62Z" stroke="url(#paint31_linear_122_9)"/>
<path d="M1664.79 1951.34C1644.03 1976.97 1611.73 1991.39 1571.02 1995.47C1530.31 1999.54 1481.24 1993.27 1426.99 1977.54C1318.51 1946.09 1189.47 1876.88 1065.6 1777.35C941.731 1677.82 846.523 1566.85 792.719 1467.9C765.817 1418.42 749.278 1371.98 744.669 1331.49C740.06 1291 747.382 1256.51 768.146 1230.88C788.911 1205.24 821.209 1190.82 861.915 1186.75C902.624 1182.67 951.701 1188.95 1005.94 1204.67C1114.42 1236.12 1243.47 1305.33 1367.34 1404.86C1491.21 1504.39 1586.41 1615.37 1640.22 1714.32C1667.12 1763.79 1683.66 1810.24 1688.27 1850.73C1692.88 1891.22 1685.55 1925.71 1664.79 1951.34Z" stroke="url(#paint32_linear_122_9)"/>
<path d="M1679.44 2005.05C1657.15 2032.58 1622.46 2048.05 1578.73 2052.41C1535.01 2056.77 1482.3 2050.01 1424.03 2033.1C1307.51 1999.28 1168.89 1924.9 1035.81 1817.97C902.728 1711.04 800.426 1591.83 742.596 1485.56C713.681 1432.42 695.896 1382.53 690.927 1339.05C685.959 1295.57 693.808 1258.52 716.105 1231C738.402 1203.47 773.093 1188 816.815 1183.64C860.539 1179.28 913.254 1186.05 971.518 1202.95C1088.04 1236.77 1226.66 1311.15 1359.74 1418.08C1492.82 1525.01 1595.12 1644.22 1652.95 1750.49C1681.87 1803.63 1699.65 1853.52 1704.62 1897C1709.59 1940.48 1701.74 1977.53 1679.44 2005.05Z" stroke="url(#paint33_linear_122_9)"/>
<path d="M1694.1 2058.77C1670.27 2088.18 1633.19 2104.71 1586.45 2109.35C1539.71 2113.99 1483.36 2106.75 1421.07 2088.65C1296.5 2052.46 1148.3 1972.92 1006.01 1858.59C863.725 1744.27 754.329 1616.82 692.473 1503.22C661.544 1446.41 642.514 1393.09 637.186 1346.61C631.858 1300.13 640.233 1260.54 664.063 1231.12C687.892 1201.7 724.977 1185.18 771.714 1180.53C818.454 1175.89 874.807 1183.14 937.092 1201.23C1061.66 1237.42 1209.86 1316.96 1352.15 1431.29C1494.44 1545.62 1603.83 1673.06 1665.69 1786.67C1696.62 1843.47 1715.65 1896.8 1720.98 1943.28C1726.3 1989.75 1717.93 2029.35 1694.1 2058.77Z" stroke="url(#paint34_linear_122_9)"/>
<path d="M1708.75 2112.48C1683.39 2143.79 1643.91 2161.37 1594.16 2166.29C1544.41 2171.22 1484.42 2163.49 1418.11 2144.21C1285.5 2105.65 1127.72 2020.94 976.219 1899.22C824.723 1777.49 708.231 1641.81 642.349 1520.88C609.408 1460.41 589.131 1403.65 583.444 1354.17C577.756 1304.7 586.659 1262.55 612.021 1231.24C637.383 1199.93 676.861 1182.35 726.614 1177.43C776.369 1172.5 836.36 1180.24 902.667 1199.52C1035.28 1238.07 1193.06 1322.78 1344.56 1444.51C1496.05 1566.24 1612.54 1701.91 1678.43 1822.85C1711.37 1883.31 1731.64 1940.08 1737.33 1989.55C1743.02 2039.02 1734.12 2081.17 1708.75 2112.48Z" stroke="url(#paint35_linear_122_9)"/>
<path d="M1723.41 2166.19C1696.52 2199.39 1654.64 2218.03 1601.88 2223.23C1549.11 2228.44 1485.48 2220.22 1415.15 2199.76C1274.49 2158.83 1107.13 2068.96 946.426 1939.84C785.72 1810.71 662.134 1666.8 592.226 1538.54C557.271 1474.4 535.749 1414.2 529.702 1361.73C523.655 1309.26 533.085 1264.57 559.98 1231.36C586.874 1198.16 628.745 1179.53 681.514 1174.32C734.284 1169.11 797.913 1177.33 868.242 1197.8C1008.9 1238.72 1176.26 1328.59 1336.96 1457.72C1497.67 1586.85 1621.26 1730.76 1691.16 1859.02C1726.12 1923.15 1747.64 1983.35 1753.69 2035.82C1759.73 2088.29 1750.3 2132.99 1723.41 2166.19Z" stroke="url(#paint36_linear_122_9)"/>
<path d="M1738.06 2219.91C1709.64 2255 1665.37 2274.68 1609.59 2280.18C1553.8 2285.67 1486.54 2276.96 1412.19 2255.32C1263.49 2212.02 1086.55 2116.98 916.632 1980.46C746.718 1843.93 616.037 1691.79 542.103 1556.19C505.135 1488.4 482.367 1424.76 475.96 1369.29C469.554 1313.83 479.51 1266.58 507.938 1231.49C536.365 1196.39 580.629 1176.71 636.413 1171.22C692.199 1165.72 759.466 1174.43 833.817 1196.08C982.517 1239.37 1159.46 1334.41 1329.37 1470.93C1499.28 1607.46 1629.97 1759.6 1703.9 1895.2C1740.87 1962.99 1763.64 2026.63 1770.04 2082.1C1776.45 2137.56 1766.49 2184.81 1738.06 2219.91Z" stroke="url(#paint37_linear_122_9)"/>
<path d="M1752.72 2273.62C1722.76 2310.6 1676.1 2331.34 1617.3 2337.12C1558.5 2342.89 1487.6 2333.7 1409.22 2310.87C1252.48 2265.21 1065.96 2165.01 886.838 2021.08C707.715 1877.15 569.94 1716.78 491.979 1573.86C452.999 1502.39 428.985 1435.32 422.219 1376.86C415.453 1318.4 425.936 1268.59 455.896 1231.61C485.856 1194.62 532.513 1173.89 591.313 1168.11C650.115 1162.33 721.019 1171.52 799.392 1194.36C956.136 1240.02 1142.65 1340.22 1321.78 1484.15C1500.9 1628.08 1638.68 1788.45 1716.64 1931.37C1755.62 2002.83 1779.63 2069.91 1786.4 2128.37C1793.16 2186.83 1782.68 2236.63 1752.72 2273.62Z" stroke="url(#paint38_linear_122_9)"/>
<path d="M1767.38 2327.33C1735.88 2366.21 1686.83 2388 1625.02 2394.06C1563.2 2400.12 1488.66 2390.44 1406.26 2366.43C1241.48 2318.39 1045.38 2213.03 857.045 2061.7C668.713 1910.37 523.842 1741.77 441.856 1591.51C400.862 1516.39 375.602 1445.87 368.477 1384.42C361.352 1322.96 372.362 1270.61 403.854 1231.73C435.347 1192.85 484.397 1171.06 546.212 1165C608.03 1158.94 682.572 1168.62 764.967 1192.64C929.754 1240.67 1125.85 1346.04 1314.18 1497.36C1502.52 1648.69 1647.39 1817.3 1729.37 1967.55C1770.37 2042.67 1795.63 2113.19 1802.75 2174.65C1809.88 2236.1 1798.87 2288.46 1767.38 2327.33Z" stroke="url(#paint39_linear_122_9)"/>
<g filter="url(#filter0_d_122_9)">
<path d="M-111.441 251.653C62.8938 420.22 -59.9094 552.586 -59.1297 617.212C-56.7932 826.553 42.8109 874.202 -42.3411 1000.48C-110.463 1101.5 -106.335 1155.72 -102.639 1158.9" stroke="url(#paint40_linear_122_9)"/>
<path d="M-95.9088 252.558C68.3463 425.845 -50.5523 552.804 -50.8521 617.936C-52.1727 824.934 42.0778 873.1 -43.7202 995.502C-112.359 1093.42 -107.512 1147.77 -103.053 1151.43" stroke="url(#paint41_linear_122_9)"/>
<path d="M-80.3763 253.464C73.7279 430.984 -41.1402 552.825 -42.5368 618.433C-47.4272 822.988 41.5074 871.392 -44.8415 989.943C-113.921 1084.78 -108.36 1139.33 -103.152 1143.52" stroke="url(#paint42_linear_122_9)"/>
<path d="M-64.8439 254.369C79.0506 435.636 -31.6696 552.651 -34.1795 618.707C-42.5508 820.72 41.1128 869.084 -45.6933 983.815C-115.138 1075.6 -108.868 1130.41 -102.931 1135.17" stroke="url(#paint43_linear_122_9)"/>
<path d="M-49.3114 255.274C84.327 439.798 -22.1364 552.285 -25.7759 618.759C-37.5375 818.136 40.9072 866.186 -46.2637 977.13C-116 1065.89 -109.029 1121.02 -102.38 1126.4" stroke="url(#paint44_linear_122_9)"/>
<path d="M-33.7789 256.18C89.5693 443.471 -12.5369 551.73 -17.3217 618.591C-32.3815 815.242 40.9035 862.706 -46.5413 969.899C-116.497 1055.65 -108.835 1111.19 -101.494 1117.23" stroke="url(#paint45_linear_122_9)"/>
<path d="M-18.2464 257.085C94.79 446.653 -2.86743 550.989 -8.81272 618.206C-27.0771 812.045 41.1143 858.654 -46.5151 962.137C-116.619 1044.92 -108.277 1100.93 -100.266 1107.67" stroke="url(#paint46_linear_122_9)"/>
<path d="M-2.71391 257.99C100.001 449.344 6.8755 550.065 -0.244821 617.606C-21.619 808.55 41.552 854.039 -46.1742 953.854C-116.355 1033.71 -107.348 1090.25 -98.6897 1097.74" stroke="url(#paint47_linear_122_9)"/>
<path d="M12.8185 258.896C105.215 451.546 16.6953 548.962 8.38595 616.794C-16.002 804.764 42.2288 848.872 -45.5084 945.065C-115.698 1022.02 -106.042 1079.16 -96.759 1087.44" stroke="url(#paint48_linear_122_9)"/>
<path d="M28.3509 259.801C110.445 453.259 26.5957 547.682 17.0837 615.771C-10.2206 800.694 43.1566 843.163 -44.5073 935.783C-114.638 1009.88 -104.352 1067.69 -94.4684 1076.79" stroke="url(#paint49_linear_122_9)"/>
<path d="M43.8834 260.707C115.702 454.484 36.5798 546.23 25.8525 614.543C-4.27001 796.347 44.347 836.923 -43.1611 926.022C-113.168 997.302 -102.271 1055.84 -91.8125 1065.81" stroke="url(#paint50_linear_122_9)"/>
<path d="M59.4159 261.612C120.998 455.223 46.6508 544.608 34.696 613.11C1.85464 791.729 45.8114 830.164 -41.4604 915.797C-111.278 984.304 -99.7927 1043.64 -88.7867 1054.51" stroke="url(#paint51_linear_122_9)"/>
<path d="M74.9483 262.517C126.347 455.478 56.8121 542.821 43.6181 611.477C8.15807 786.848 47.5609 822.897 -39.3961 905.122C-108.962 970.902 -96.9124 1031.1 -85.3861 1042.91" stroke="url(#paint52_linear_122_9)"/>
<path d="M90.4809 263.423C131.759 455.253 67.0667 540.871 52.6225 609.646C14.6448 781.711 49.6064 815.134 -36.9592 894.011C-106.212 957.113 -93.6245 1018.24 -81.6067 1031.02" stroke="url(#paint53_linear_122_9)"/>
<path d="M106.013 264.328C137.248 454.55 77.4174 538.764 61.7128 607.62C21.3189 776.325 51.9581 806.889 -34.1415 882.48C-103.021 942.954 -89.9244 1005.07 -77.4447 1018.85" stroke="url(#paint54_linear_122_9)"/>
<path d="M121.546 265.233C142.824 453.372 87.8674 536.503 70.8927 605.404C28.1849 770.697 54.6264 798.172 -30.9348 870.545C-99.3837 928.443 -85.8074 991.602 -72.8964 1006.43" stroke="url(#paint55_linear_122_9)"/>
<path d="M137.078 266.139C148.499 451.725 98.4192 534.092 80.1655 603.001C35.2465 764.836 57.6212 788.999 -27.3314 858.22C-95.2934 913.597 -81.2694 977.862 -67.9587 993.76" stroke="url(#paint56_linear_122_9)"/>
<path d="M152.611 267.044C154.286 449.612 109.076 531.535 89.5348 600.413C42.5077 758.749 60.9521 779.382 -23.3238 845.522C-90.7446 898.434 -76.3067 963.863 -62.6288 980.864" stroke="url(#paint57_linear_122_9)"/>
<path d="M168.143 267.949C160.196 447.038 119.839 528.837 99.0039 597.646C49.9721 752.444 64.6283 769.335 -18.9052 832.466C-85.7319 882.972 -70.9159 949.622 -56.904 967.755" stroke="url(#paint58_linear_122_9)"/>
<path d="M183.676 268.855C166.241 444.008 130.713 526.001 108.576 594.703C57.643 745.928 68.6586 758.872 -14.0689 819.07C-80.2509 867.229 -65.0941 935.155 -50.7826 954.449" stroke="url(#paint59_linear_122_9)"/>
<path d="M199.208 269.76C172.43 440.529 141.699 523.032 118.254 591.587C65.5238 739.21 73.0517 748.008 -8.80867 805.349C-74.297 851.223 -58.8387 920.479 -44.2624 940.96" stroke="url(#paint60_linear_122_9)"/>
<path d="M214.741 270.665C178.777 436.606 152.799 519.934 128.041 588.302C73.6176 732.297 77.8159 736.757 -3.11871 791.321C-67.8664 834.972 -52.1475 905.611 -37.3422 927.304" stroke="url(#paint61_linear_122_9)"/>
<path d="M230.273 271.571C185.292 432.246 164.015 516.712 137.941 584.853C81.9272 725.199 82.959 725.134 3.00655 777.001C-60.9554 818.495 -45.0186 890.567 -30.0207 913.496" stroke="url(#paint62_linear_122_9)"/>
<path d="M247.133 273.542C193.312 428.522 176.678 514.437 149.282 582.311C91.7828 718.988 89.8159 714.221 10.8995 763.474C-52.2337 802.877 -36.1232 876.431 -20.97 900.618" stroke="url(#paint63_linear_122_9)"/>
<path d="M265.045 276.511C202.574 425.372 190.514 513.044 161.794 580.609C102.911 713.605 98.1185 703.964 20.2893 750.688C-41.9739 788.066 -25.7356 863.149 -10.465 888.616" stroke="url(#paint64_linear_122_9)"/>
<path d="M282.921 279.652C212.001 421.98 204.437 511.713 174.391 578.929C114.228 708.232 106.786 693.554 30.0931 737.834C-31.2612 773.258 -14.9426 849.915 0.406947 876.68" stroke="url(#paint65_linear_122_9)"/>
<path d="M300.755 282.965C221.595 418.352 218.442 510.448 187.068 577.272C125.728 702.878 115.818 683.006 40.3078 724.93C-20.1006 758.469 -3.75059 836.743 11.6387 864.825" stroke="url(#paint66_linear_122_9)"/>
<path d="M318.54 286.447C231.36 414.495 232.524 509.251 199.822 575.643C137.407 697.549 125.214 672.335 50.9301 711.991C-8.49736 743.716 7.83356 823.65 23.223 853.064" stroke="url(#paint67_linear_122_9)"/>
<path d="M336.269 290.098C241.3 410.418 246.678 508.127 212.648 574.044C149.259 692.252 134.974 661.555 61.9564 699.035C3.54269 729.018 19.8026 810.649 35.1519 841.411" stroke="url(#paint68_linear_122_9)"/>
<path d="M353.936 293.916C251.418 406.126 260.899 507.078 225.542 572.479C161.28 686.994 145.094 650.682 73.383 686.075C16.0137 714.39 32.1494 797.756 47.4179 829.879" stroke="url(#paint69_linear_122_9)"/>
<path d="M371.534 297.897C261.717 401.628 275.181 506.107 238.5 570.948C173.465 681.781 155.576 639.729 85.2056 673.129C28.9095 699.849 44.8664 784.986 60.0127 818.48" stroke="url(#paint70_linear_122_9)"/>
<path d="M389.057 302.041C272.199 396.931 289.521 505.216 251.518 569.455C185.808 676.619 166.415 628.71 97.4198 660.21C42.2233 685.411 57.9454 772.351 72.9282 807.227" stroke="url(#paint71_linear_122_9)"/>
<path d="M406.499 306.343C282.867 392.043 303.912 504.408 264.59 568.001C198.304 671.514 177.612 617.64 110.021 647.335C55.9484 671.091 71.3787 759.865 86.1558 796.131" stroke="url(#paint72_linear_122_9)"/>
<path d="M423.853 310.801C293.724 386.97 318.349 503.683 277.714 566.589C210.949 666.471 189.162 606.533 123.004 634.518C70.0776 656.906 85.1578 747.541 99.687 785.203" stroke="url(#paint73_linear_122_9)"/>
<path d="M441.114 315.411C304.774 381.72 332.828 503.043 290.884 565.219C223.737 661.494 201.064 595.403 136.364 621.773C84.6034 642.87 99.2742 735.392 113.513 774.455" stroke="url(#paint74_linear_122_9)"/>
<path d="M458.276 320.169C316.017 376.301 347.343 502.491 304.098 563.892C236.662 656.589 213.315 584.262 150.094 609.115C99.5182 628.997 113.719 723.431 127.624 763.897" stroke="url(#paint75_linear_122_9)"/>
<path d="M475.333 325.072C327.457 370.721 361.89 502.026 317.349 562.61C249.719 651.761 225.911 573.125 164.19 596.557C114.814 615.302 128.483 711.667 142.012 753.539" stroke="url(#paint76_linear_122_9)"/>
<path d="M492.279 330.114C339.095 364.986 376.464 501.649 330.636 561.374C262.903 647.013 238.85 562.004 178.646 584.112C130.482 601.799 143.558 700.114 156.667 743.39" stroke="url(#paint77_linear_122_9)"/>
<path d="M509.11 335.293C350.934 359.105 391.059 501.361 343.953 560.183C276.209 642.349 252.128 550.913 193.454 571.795C146.515 588.501 158.934 688.782 171.579 733.46" stroke="url(#paint78_linear_122_9)"/>
<path d="M525.819 340.601C362.976 353.084 405.671 501.162 357.297 559.038C289.63 637.774 265.741 539.864 208.609 559.618C162.903 575.421 174.601 677.681 186.74 723.758" stroke="url(#paint79_linear_122_9)"/>
<path d="M542.403 346.036C375.222 346.933 420.295 501.052 370.663 557.939C303.161 633.29 279.685 528.871 224.103 547.593C179.638 562.572 190.55 666.821 202.138 714.29" stroke="url(#paint80_linear_122_9)"/>
<path d="M558.856 351.59C387.675 340.658 434.926 501.031 384.048 556.886C316.798 628.9 293.955 517.944 239.93 535.734C196.711 549.966 206.771 656.212 217.765 705.066" stroke="url(#paint81_linear_122_9)"/>
<path d="M575.173 357.26C400.335 334.267 449.56 501.098 397.448 555.878C330.533 624.608 308.548 507.097 256.083 524.051C214.111 537.614 223.254 645.863 233.61 696.093" stroke="url(#paint82_linear_122_9)"/>
<path d="M591.35 363.038C413.204 327.768 464.191 501.252 410.86 554.916C344.363 620.415 323.459 496.341 272.554 512.557C231.83 525.53 239.988 635.783 249.663 687.377" stroke="url(#paint83_linear_122_9)"/>
<path d="M607.383 368.92C426.284 321.168 478.816 501.494 424.279 553.997C358.28 616.324 338.682 485.688 289.335 501.263C249.858 513.722 256.964 625.979 265.915 678.925" stroke="url(#paint84_linear_122_9)"/>
<path d="M623.266 374.898C439.575 314.476 493.43 501.82 437.702 553.122C372.281 612.338 354.212 475.149 306.419 490.179C268.184 502.203 274.171 616.46 282.354 670.742" stroke="url(#paint85_linear_122_9)"/>
<path d="M638.997 380.967C453.08 307.699 508.029 502.23 451.125 552.288C386.359 608.457 370.045 464.736 323.797 479.317C286.799 490.981 291.599 607.233 298.971 662.836" stroke="url(#paint86_linear_122_9)"/>
<path d="M654.572 387.12C466.797 300.845 522.608 502.722 464.546 551.495C400.508 604.683 386.174 454.46 341.461 468.686C305.692 480.067 309.237 598.305 315.754 655.209" stroke="url(#paint87_linear_122_9)"/>
<path d="M669.986 393.351C480.73 293.921 537.162 503.295 477.961 550.742C414.724 601.018 402.593 444.33 359.404 458.297C324.853 469.471 327.073 589.682 332.695 647.868" stroke="url(#paint88_linear_122_9)"/>
<path d="M685.237 399.651C494.877 286.936 551.689 503.946 491.366 550.025C429.001 597.462 419.298 434.359 377.616 448.159C344.271 459.2 345.099 581.369 349.782 640.815" stroke="url(#paint89_linear_122_9)"/>
<path d="M718.472 411.583C518.199 307.005 589.766 524.858 530.796 576.224C471.826 627.59 453.972 459.368 414.402 477.518C382.746 492.037 389.987 615.883 397.565 675.991" stroke="url(#paint90_linear_122_9)"/>
<path d="M736.327 416.417C528.374 334.385 614.074 543.819 558.027 601.658C501.979 659.498 473.414 493.605 434.776 516.131C403.865 534.151 418.96 656.941 430.371 716.084" stroke="url(#paint91_linear_122_9)"/>
<path d="M753.839 420.552C539.787 361.899 639.034 561.477 586.365 625.517C533.697 689.556 494.58 527.07 457.181 553.892C427.262 575.35 450.14 696.295 465.318 754.086" stroke="url(#paint92_linear_122_9)"/>
<path d="M770.962 424.028C552.452 389.409 664.567 577.761 615.719 647.678C566.87 717.594 517.429 559.572 481.574 590.575C452.89 615.378 483.43 733.701 502.285 789.761" stroke="url(#paint93_linear_122_9)"/>
<path d="M787.654 426.889C566.374 416.775 690.59 592.609 645.984 668.028C601.378 743.447 541.907 590.922 507.894 625.958C480.684 653.988 518.715 768.921 541.132 822.884" stroke="url(#paint94_linear_122_9)"/>
<path d="M803.874 429.182C581.546 443.856 717.013 605.963 677.05 686.465C637.087 766.967 567.946 620.937 536.066 659.824C510.561 690.934 555.866 801.733 581.706 853.243" stroke="url(#paint95_linear_122_9)"/>
<path d="M819.586 430.96C597.954 470.511 743.745 617.778 708.798 702.896C673.852 788.015 595.466 649.442 565.996 691.964C542.42 725.982 594.733 831.923 623.836 880.642" stroke="url(#paint96_linear_122_9)"/>
<path d="M834.758 432.278C615.572 496.601 770.687 628.017 741.104 717.243C711.521 806.468 624.374 676.266 597.58 722.178C576.146 758.907 635.155 859.296 667.339 904.9" stroke="url(#paint97_linear_122_9)"/>
<path d="M849.36 433.196C634.364 521.99 797.742 636.651 773.836 729.436C749.929 822.221 654.563 701.253 630.696 750.277C611.603 789.496 676.953 883.672 712.015 925.857" stroke="url(#paint98_linear_122_9)"/>
<path d="M863.367 433.776C654.285 546.546 824.807 643.664 806.856 739.423C788.905 835.182 685.916 724.253 665.208 776.084C648.642 817.549 719.937 904.887 757.655 943.373" stroke="url(#paint99_linear_122_9)"/>
<path d="M876.758 434.081C675.282 570.141 851.779 649.048 840.024 747.163C828.27 845.278 718.305 745.132 700.97 799.438C687.101 842.884 763.904 922.801 804.039 957.329" stroke="url(#paint100_linear_122_9)"/>
<path d="M889.517 434.178C697.29 592.655 878.552 652.806 873.195 752.631C867.838 852.456 751.592 763.768 737.82 820.193C726.802 865.333 808.639 937.292 850.935 967.629" stroke="url(#paint101_linear_122_9)"/>
<path d="M901.631 434.135C720.237 613.973 905.022 654.954 906.22 755.817C907.419 856.68 785.63 780.053 775.587 838.218C767.554 884.749 853.918 948.261 898.104 974.201" stroke="url(#paint102_linear_122_9)"/>
<path d="M913.093 434.019C744.042 633.988 931.084 655.515 938.952 756.725C946.82 857.934 820.261 793.896 814.092 853.402C809.156 901.007 899.51 955.635 945.304 976.998" stroke="url(#paint103_linear_122_9)"/>
<path d="M923.898 433.9C768.617 652.604 956.633 654.527 971.24 755.376C985.846 856.225 855.324 805.223 853.143 865.654C851.398 913.999 945.175 959.362 992.282 976" stroke="url(#paint104_linear_122_9)"/>
<path d="M934.05 433.846C793.868 669.732 981.569 652.035 1002.93 751.806C1024.3 851.578 890.65 813.976 892.544 874.903C894.06 923.645 990.671 959.418 1038.79 971.212" stroke="url(#paint105_linear_122_9)"/>
<path d="M943.553 433.928C819.691 685.296 1005.79 648.097 1033.89 746.068C1061.98 844.04 926.064 820.117 932.092 881.099C936.915 929.884 1035.75 955.805 1084.56 962.668" stroke="url(#paint106_linear_122_9)"/>
<path d="M952.419 434.211C845.98 699.23 1029.2 642.781 1063.95 738.23C1098.7 833.679 961.388 823.625 971.579 884.213C979.732 932.684 1080.16 948.551 1129.36 950.426" stroke="url(#paint107_linear_122_9)"/>
<path d="M960.662 434.763C872.622 711.479 1051.71 636.166 1092.98 728.374C1134.26 820.582 996.443 824.5 1010.79 884.242C1022.27 932.036 1123.66 937.711 1172.92 934.574" stroke="url(#paint108_linear_122_9)"/>
<path d="M968.301 435.647C899.5 722.004 1073.22 628.339 1120.85 716.599C1168.48 804.86 1031.05 822.762 1049.52 881.203C1064.31 927.955 1166 923.365 1215.01 915.226" stroke="url(#paint109_linear_122_9)"/>
<path d="M975.36 436.927C926.496 730.774 1093.66 619.397 1147.42 703.02C1201.18 786.642 1065.02 818.448 1087.56 875.136C1105.59 920.486 1206.95 905.623 1255.37 892.523" stroke="url(#paint110_linear_122_9)"/>
<path d="M981.867 438.66C953.486 737.775 1112.95 609.448 1172.56 687.762C1232.18 766.077 1098.19 811.619 1124.69 866.107C1145.89 909.698 1246.25 884.62 1293.78 866.633" stroke="url(#paint111_linear_122_9)"/>
<path d="M987.853 440.904C980.348 743.006 1131.01 598.606 1196.16 670.969C1261.32 743.332 1130.36 802.351 1160.7 854.203C1184.97 895.684 1283.69 860.517 1330.01 837.747" stroke="url(#paint112_linear_122_9)"/>
<path d="M993.354 443.71C1006.96 746.478 1147.79 586.993 1218.11 652.793C1288.44 718.594 1161.39 790.744 1195.4 839.534C1222.62 878.567 1319.04 833.498 1363.86 806.084" stroke="url(#paint113_linear_122_9)"/>
<path d="M998.407 447.128C1033.19 748.218 1163.22 574.738 1238.31 633.402C1313.4 692.065 1191.08 776.914 1228.59 822.235C1258.6 858.491 1352.11 803.775 1395.11 771.884" stroke="url(#paint114_linear_122_9)"/>
<path d="M1003.05 451.201C1058.93 748.265 1177.26 561.978 1256.67 612.971C1336.08 663.964 1219.3 760.996 1260.08 802.458C1292.7 835.627 1382.69 771.579 1423.6 735.409" stroke="url(#paint115_linear_122_9)"/>
<path d="M1007.34 455.97C1084.05 746.671 1189.87 548.854 1273.11 591.69C1356.35 634.525 1245.89 743.143 1289.69 780.38C1324.74 810.168 1410.6 737.168 1449.15 696.944" stroke="url(#paint116_linear_122_9)"/>
<path d="M1011.31 461.469C1108.43 743.504 1201.03 535.511 1287.57 569.753C1374.12 603.995 1270.7 723.526 1317.26 756.196C1354.51 782.331 1435.69 700.814 1471.62 656.788" stroke="url(#paint117_linear_122_9)"/>
<path d="M1015.02 467.728C1131.97 738.843 1210.69 522.098 1299.99 547.364C1389.29 572.63 1293.61 702.328 1342.63 730.119C1381.85 752.352 1457.8 662.812 1490.87 615.263" stroke="url(#paint118_linear_122_9)"/>
<path d="M1018.51 474.772C1154.56 732.779 1218.87 508.768 1310.33 524.735C1401.8 540.701 1314.51 679.752 1365.67 702.383C1406.6 720.488 1476.8 623.472 1506.79 572.7" stroke="url(#paint119_linear_122_9)"/>
<path d="M1021.85 482.619C1176.1 725.416 1225.55 495.674 1318.57 502.078C1411.59 508.483 1333.28 656.009 1386.24 673.233C1428.61 687.013 1492.6 583.118 1519.3 529.448" stroke="url(#paint120_linear_122_9)"/>
<path d="M1025.07 491.283C1196.49 716.868 1230.74 482.969 1324.69 479.614C1418.64 476.258 1349.84 631.324 1404.24 642.932C1447.77 652.218 1505.11 542.089 1528.34 485.863" stroke="url(#paint121_linear_122_9)"/>
<path d="M1028.24 500.772C1215.65 707.261 1234.46 470.809 1328.7 457.562C1422.93 444.316 1364.11 605.935 1419.58 611.753C1463.96 616.407 1514.26 500.731 1533.86 442.31" stroke="url(#paint122_linear_122_9)"/>
<path d="M1031.41 511.087C1233.5 696.729 1236.75 459.346 1330.6 436.145C1424.46 412.945 1376.03 580.084 1432.19 579.981C1477.11 579.899 1520.01 459.4 1535.84 399.161" stroke="url(#paint123_linear_122_9)"/>
<path d="M1034.64 522.225C1249.97 685.416 1237.62 448.728 1330.44 415.582C1423.25 382.436 1385.57 554.025 1442 547.91C1487.15 543.018 1522.34 418.457 1534.3 356.788" stroke="url(#paint124_linear_122_9)"/>
<path d="M1037.98 534.176C1265.01 673.473 1237.15 439.104 1328.25 396.091C1419.35 353.078 1392.68 528.012 1449 515.839C1494.05 506.101 1521.28 378.266 1529.26 315.566" stroke="url(#paint125_linear_122_9)"/>
<path d="M1041.48 546.924C1278.56 661.056 1235.38 430.615 1324.1 377.885C1412.82 325.156 1397.38 502.307 1453.15 484.073C1497.77 469.485 1516.84 339.19 1520.79 275.866" stroke="url(#paint126_linear_122_9)"/>
<path d="M1045.2 560.45C1290.59 648.33 1232.39 423.396 1318.06 361.174C1403.74 298.951 1399.65 477.172 1454.48 452.918C1498.34 433.515 1509.08 301.592 1508.97 238.056" stroke="url(#paint127_linear_122_9)"/>
<path d="M1049.19 574.725C1301.07 635.46 1228.24 417.577 1310.22 346.156C1392.21 274.735 1399.54 452.868 1453 422.681C1495.77 398.531 1498.09 265.828 1493.9 202.495" stroke="url(#paint128_linear_122_9)"/>
<path d="M1053.49 589.72C1310 622.616 1223.02 413.281 1300.69 333.025C1378.35 252.769 1397.09 429.654 1448.78 393.665C1490.13 364.874 1483.97 232.246 1475.73 169.53" stroke="url(#paint129_linear_122_9)"/>
<path d="M1058.16 605.397C1317.35 609.971 1216.84 410.62 1289.57 321.963C1362.3 233.305 1392.35 407.785 1441.86 366.171C1481.48 332.88 1466.86 201.185 1454.59 139.498" stroke="url(#paint130_linear_122_9)"/>
<path d="M1063.23 621.715C1323.16 597.697 1209.79 409.698 1277 313.139C1344.21 216.579 1385.41 387.51 1432.36 340.491C1469.92 302.876 1446.9 172.97 1430.69 112.718" stroke="url(#paint131_linear_122_9)"/>
<path d="M1068.76 638.628C1327.42 585.963 1201.98 410.609 1263.11 306.711C1324.25 202.812 1376.37 369.07 1420.38 316.909C1455.59 275.18 1424.27 147.911 1404.21 89.4923" stroke="url(#paint132_linear_122_9)"/>
<path d="M1074.77 656.086C1330.19 574.94 1193.52 413.435 1248.07 302.822C1302.61 192.209 1365.34 352.695 1406.05 295.696C1438.61 250.096 1399.18 126.3 1375.39 70.1011" stroke="url(#paint133_linear_122_9)"/>
<path d="M1081.3 674.036C1331.49 564.792 1184.54 418.247 1232.02 301.599C1279.49 184.952 1352.46 338.603 1389.51 277.11C1419.16 227.916 1371.83 108.407 1344.46 54.8023" stroke="url(#paint134_linear_122_9)"/>
<path d="M1088.39 692.419C1331.4 555.681 1175.17 425.102 1215.14 303.155C1255.1 181.208 1337.86 327 1370.95 261.395C1397.42 208.912 1342.47 94.4831 1311.69 43.8292" stroke="url(#paint135_linear_122_9)"/>
<path d="M1096.06 711.177C1329.97 547.76 1165.53 434.047 1197.6 307.582C1229.67 181.116 1321.71 318.075 1350.54 248.776C1373.6 193.337 1311.36 84.7506 1277.35 37.3872" stroke="url(#paint136_linear_122_9)"/>
<path d="M1104.34 730.245C1327.29 541.176 1155.77 445.111 1179.6 314.954C1203.44 184.797 1304.18 312.001 1328.48 239.458C1347.92 181.423 1278.76 79.4066 1241.75 35.6525" stroke="url(#paint137_linear_122_9)"/>
<path d="M1113.23 749.559C1323.44 536.068 1146.01 458.314 1161.33 325.328C1176.65 192.342 1285.47 308.932 1305 233.624C1320.62 173.378 1244.96 78.6198 1205.17 38.7714" stroke="url(#paint138_linear_122_9)"/>
<path d="M1122.77 769.052C1318.52 532.565 1136.4 473.658 1142.97 338.739C1149.55 203.821 1265.76 309.002 1280.31 231.437C1291.96 169.385 1210.26 82.5288 1167.95 46.8575" stroke="url(#paint139_linear_122_9)"/>
</g>
<defs>
<filter id="filter0_d_122_9" x="-111.786" y="35.3258" width="1662.11" height="1131.95" filterUnits="userSpaceOnUse" color-interpolation-filters="sRGB">
<feFlood flood-opacity="0" result="BackgroundImageFix"/>
<feColorMatrix in="SourceAlpha" type="matrix" values="0 0 0 0 0 0 0 0 0 0 0 0 0 0 0 0 0 0 127 0" result="hardAlpha"/>
<feOffset dx="10" dy="4"/>
<feGaussianBlur stdDeviation="2"/>
<feComposite in2="hardAlpha" operator="out"/>
<feColorMatrix type="matrix" values="0 0 0 0 0 0 0 0 0 0 0 0 0 0 0 0 0 0 0.25 0"/>
<feBlend mode="normal" in2="BackgroundImageFix" result="effect1_dropShadow_122_9"/>
<feBlend mode="normal" in="SourceGraphic" in2="effect1_dropShadow_122_9" result="shape"/>
</filter>
<linearGradient id="paint0_linear_122_9" x1="-8.7921" y1="2945.33" x2="26.4236" y2="2900.36" gradientUnits="userSpaceOnUse">
<stop offset="0.015625" stop-color="#FF3DB1" stop-opacity="0.7"/>
<stop offset="1" stop-color="#FF3DB1" stop-opacity="0.3"/>
</linearGradient>
<linearGradient id="paint1_linear_122_9" x1="-1.36679" y1="2932.03" x2="55.5918" y2="2859.28" gradientUnits="userSpaceOnUse">
<stop offset="0.015625" stop-color="#FF3DB1" stop-opacity="0.7"/>
<stop offset="1" stop-color="#FF3DB1" stop-opacity="0.3"/>
</linearGradient>
<linearGradient id="paint2_linear_122_9" x1="6.0587" y1="2918.72" x2="84.7603" y2="2818.2" gradientUnits="userSpaceOnUse">
<stop offset="0.015625" stop-color="#FF3DB1" stop-opacity="0.7"/>
<stop offset="1" stop-color="#FF3DB1" stop-opacity="0.3"/>
</linearGradient>
<linearGradient id="paint3_linear_122_9" x1="13.484" y1="2905.41" x2="113.929" y2="2777.12" gradientUnits="userSpaceOnUse">
<stop offset="0.015625" stop-color="#FF3DB1" stop-opacity="0.7"/>
<stop offset="1" stop-color="#FF3DB1" stop-opacity="0.3"/>
</linearGradient>
<linearGradient id="paint4_linear_122_9" x1="20.9064" y1="2892.1" x2="143.094" y2="2736.04" gradientUnits="userSpaceOnUse">
<stop offset="0.015625" stop-color="#FF3DB1" stop-opacity="0.7"/>
<stop offset="1" stop-color="#FF3DB1" stop-opacity="0.3"/>
</linearGradient>
<linearGradient id="paint5_linear_122_9" x1="28.332" y1="2878.79" x2="172.263" y2="2694.96" gradientUnits="userSpaceOnUse">
<stop offset="0.015625" stop-color="#FF3DB1" stop-opacity="0.7"/>
<stop offset="1" stop-color="#FF3DB1" stop-opacity="0.3"/>
</linearGradient>
<linearGradient id="paint6_linear_122_9" x1="35.7575" y1="2865.48" x2="201.431" y2="2653.88" gradientUnits="userSpaceOnUse">
<stop offset="0.015625" stop-color="#FF3DB1" stop-opacity="0.7"/>
<stop offset="1" stop-color="#FF3DB1" stop-opacity="0.3"/>
</linearGradient>
<linearGradient id="paint7_linear_122_9" x1="43.183" y1="2852.17" x2="230.599" y2="2612.8" gradientUnits="userSpaceOnUse">
<stop offset="0.015625" stop-color="#FF3DB1" stop-opacity="0.7"/>
<stop offset="1" stop-color="#FF3DB1" stop-opacity="0.3"/>
</linearGradient>
<linearGradient id="paint8_linear_122_9" x1="50.6088" y1="2838.86" x2="259.768" y2="2571.72" gradientUnits="userSpaceOnUse">
<stop offset="0.015625" stop-color="#FF3DB1" stop-opacity="0.7"/>
<stop offset="1" stop-color="#FF3DB1" stop-opacity="0.3"/>
</linearGradient>
<linearGradient id="paint9_linear_122_9" x1="58.0344" y1="2825.55" x2="288.937" y2="2530.64" gradientUnits="userSpaceOnUse">
<stop offset="0.015625" stop-color="#FF3DB1" stop-opacity="0.7"/>
<stop offset="1" stop-color="#FF3DB1" stop-opacity="0.3"/>
</linearGradient>
<linearGradient id="paint10_linear_122_9" x1="65.4597" y1="2812.24" x2="318.105" y2="2489.56" gradientUnits="userSpaceOnUse">
<stop offset="0.015625" stop-color="#FF3DB1" stop-opacity="0.7"/>
<stop offset="1" stop-color="#FF3DB1" stop-opacity="0.3"/>
</linearGradient>
<linearGradient id="paint11_linear_122_9" x1="72.8853" y1="2798.93" x2="347.274" y2="2448.48" gradientUnits="userSpaceOnUse">
<stop offset="0.015625" stop-color="#FF3DB1" stop-opacity="0.7"/>
<stop offset="1" stop-color="#FF3DB1" stop-opacity="0.3"/>
</linearGradient>
<linearGradient id="paint12_linear_122_9" x1="80.3108" y1="2785.62" x2="376.442" y2="2407.4" gradientUnits="userSpaceOnUse">
<stop offset="0.015625" stop-color="#FF3DB1" stop-opacity="0.7"/>
<stop offset="1" stop-color="#FF3DB1" stop-opacity="0.3"/>
</linearGradient>
<linearGradient id="paint13_linear_122_9" x1="87.7364" y1="2772.31" x2="405.611" y2="2366.32" gradientUnits="userSpaceOnUse">
<stop offset="0.015625" stop-color="#FF3DB1" stop-opacity="0.7"/>
<stop offset="1" stop-color="#FF3DB1" stop-opacity="0.3"/>
</linearGradient>
<linearGradient id="paint14_linear_122_9" x1="95.162" y1="2759.01" x2="434.779" y2="2325.24" gradientUnits="userSpaceOnUse">
<stop offset="0.015625" stop-color="#FF3DB1" stop-opacity="0.7"/>
<stop offset="1" stop-color="#FF3DB1" stop-opacity="0.3"/>
</linearGradient>
<linearGradient id="paint15_linear_122_9" x1="102.588" y1="2745.7" x2="463.948" y2="2284.16" gradientUnits="userSpaceOnUse">
<stop offset="0.015625" stop-color="#FF3DB1" stop-opacity="0.7"/>
<stop offset="1" stop-color="#FF3DB1" stop-opacity="0.3"/>
</linearGradient>
<linearGradient id="paint16_linear_122_9" x1="110.013" y1="2732.39" x2="493.116" y2="2243.08" gradientUnits="userSpaceOnUse">
<stop offset="0.015625" stop-color="#FF3DB1" stop-opacity="0.7"/>
<stop offset="1" stop-color="#FF3DB1" stop-opacity="0.3"/>
</linearGradient>
<linearGradient id="paint17_linear_122_9" x1="117.439" y1="2719.08" x2="522.285" y2="2202" gradientUnits="userSpaceOnUse">
<stop offset="0.015625" stop-color="#FF3DB1" stop-opacity="0.7"/>
<stop offset="1" stop-color="#FF3DB1" stop-opacity="0.3"/>
</linearGradient>
<linearGradient id="paint18_linear_122_9" x1="124.864" y1="2705.77" x2="551.454" y2="2160.92" gradientUnits="userSpaceOnUse">
<stop offset="0.015625" stop-color="#FF3DB1" stop-opacity="0.7"/>
<stop offset="1" stop-color="#FF3DB1" stop-opacity="0.3"/>
</linearGradient>
<linearGradient id="paint19_linear_122_9" x1="132.29" y1="2692.46" x2="580.622" y2="2119.84" gradientUnits="userSpaceOnUse">
<stop offset="0.015625" stop-color="#FF3DB1" stop-opacity="0.7"/>
<stop offset="1" stop-color="#FF3DB1" stop-opacity="0.3"/>
</linearGradient>
<linearGradient id="paint20_linear_122_9" x1="1458.76" y1="1245.9" x2="1422.98" y2="1290.43" gradientUnits="userSpaceOnUse">
<stop offset="0.302083" stop-color="#FF3DB1" stop-opacity="0.65"/>
<stop offset="1" stop-color="#FF3DB1" stop-opacity="0.15"/>
</linearGradient>
<linearGradient id="paint21_linear_122_9" x1="1451.17" y1="1259.11" x2="1393.3" y2="1331.14" gradientUnits="userSpaceOnUse">
<stop offset="0.302083" stop-color="#FF3DB1" stop-opacity="0.65"/>
<stop offset="1" stop-color="#FF3DB1" stop-opacity="0.15"/>
</linearGradient>
<linearGradient id="paint22_linear_122_9" x1="1443.58" y1="1272.33" x2="1363.61" y2="1371.85" gradientUnits="userSpaceOnUse">
<stop offset="0.302083" stop-color="#FF3DB1" stop-opacity="0.65"/>
<stop offset="1" stop-color="#FF3DB1" stop-opacity="0.15"/>
</linearGradient>
<linearGradient id="paint23_linear_122_9" x1="1435.98" y1="1285.54" x2="1333.93" y2="1412.56" gradientUnits="userSpaceOnUse">
<stop offset="0.302083" stop-color="#FF3DB1" stop-opacity="0.65"/>
<stop offset="1" stop-color="#FF3DB1" stop-opacity="0.15"/>
</linearGradient>
<linearGradient id="paint24_linear_122_9" x1="1428.39" y1="1298.76" x2="1304.25" y2="1453.27" gradientUnits="userSpaceOnUse">
<stop offset="0.302083" stop-color="#FF3DB1" stop-opacity="0.65"/>
<stop offset="1" stop-color="#FF3DB1" stop-opacity="0.15"/>
</linearGradient>
<linearGradient id="paint25_linear_122_9" x1="1420.8" y1="1311.97" x2="1274.56" y2="1493.97" gradientUnits="userSpaceOnUse">
<stop offset="0.302083" stop-color="#FF3DB1" stop-opacity="0.65"/>
<stop offset="1" stop-color="#FF3DB1" stop-opacity="0.15"/>
</linearGradient>
<linearGradient id="paint26_linear_122_9" x1="1413.21" y1="1325.19" x2="1244.88" y2="1534.68" gradientUnits="userSpaceOnUse">
<stop offset="0.302083" stop-color="#FF3DB1" stop-opacity="0.65"/>
<stop offset="1" stop-color="#FF3DB1" stop-opacity="0.15"/>
</linearGradient>
<linearGradient id="paint27_linear_122_9" x1="1405.62" y1="1338.4" x2="1215.19" y2="1575.39" gradientUnits="userSpaceOnUse">
<stop offset="0.302083" stop-color="#FF3DB1" stop-opacity="0.65"/>
<stop offset="1" stop-color="#FF3DB1" stop-opacity="0.15"/>
</linearGradient>
<linearGradient id="paint28_linear_122_9" x1="1398.02" y1="1351.62" x2="1185.51" y2="1616.1" gradientUnits="userSpaceOnUse">
<stop offset="0.302083" stop-color="#FF3DB1" stop-opacity="0.65"/>
<stop offset="1" stop-color="#FF3DB1" stop-opacity="0.15"/>
</linearGradient>
<linearGradient id="paint29_linear_122_9" x1="1390.43" y1="1364.83" x2="1155.82" y2="1656.81" gradientUnits="userSpaceOnUse">
<stop offset="0.302083" stop-color="#FF3DB1" stop-opacity="0.65"/>
<stop offset="1" stop-color="#FF3DB1" stop-opacity="0.15"/>
</linearGradient>
<linearGradient id="paint30_linear_122_9" x1="1382.84" y1="1378.05" x2="1126.14" y2="1697.52" gradientUnits="userSpaceOnUse">
<stop offset="0.302083" stop-color="#FF3DB1" stop-opacity="0.65"/>
<stop offset="1" stop-color="#FF3DB1" stop-opacity="0.15"/>
</linearGradient>
<linearGradient id="paint31_linear_122_9" x1="1375.24" y1="1391.26" x2="1096.45" y2="1738.22" gradientUnits="userSpaceOnUse">
<stop offset="0.302083" stop-color="#FF3DB1" stop-opacity="0.65"/>
<stop offset="1" stop-color="#FF3DB1" stop-opacity="0.15"/>
</linearGradient>
<linearGradient id="paint32_linear_122_9" x1="1367.65" y1="1404.47" x2="1066.77" y2="1778.93" gradientUnits="userSpaceOnUse">
<stop offset="0.302083" stop-color="#FF3DB1" stop-opacity="0.65"/>
<stop offset="1" stop-color="#FF3DB1" stop-opacity="0.15"/>
</linearGradient>
<linearGradient id="paint33_linear_122_9" x1="1360.06" y1="1417.69" x2="1037.08" y2="1819.64" gradientUnits="userSpaceOnUse">
<stop offset="0.302083" stop-color="#FF3DB1" stop-opacity="0.65"/>
<stop offset="1" stop-color="#FF3DB1" stop-opacity="0.15"/>
</linearGradient>
<linearGradient id="paint34_linear_122_9" x1="1352.46" y1="1430.9" x2="1007.4" y2="1860.35" gradientUnits="userSpaceOnUse">
<stop offset="0.302083" stop-color="#FF3DB1" stop-opacity="0.65"/>
<stop offset="1" stop-color="#FF3DB1" stop-opacity="0.15"/>
</linearGradient>
<linearGradient id="paint35_linear_122_9" x1="1344.87" y1="1444.12" x2="977.715" y2="1901.06" gradientUnits="userSpaceOnUse">
<stop offset="0.302083" stop-color="#FF3DB1" stop-opacity="0.65"/>
<stop offset="1" stop-color="#FF3DB1" stop-opacity="0.15"/>
</linearGradient>
<linearGradient id="paint36_linear_122_9" x1="1337.28" y1="1457.33" x2="948.03" y2="1941.77" gradientUnits="userSpaceOnUse">
<stop offset="0.302083" stop-color="#FF3DB1" stop-opacity="0.65"/>
<stop offset="1" stop-color="#FF3DB1" stop-opacity="0.15"/>
</linearGradient>
<linearGradient id="paint37_linear_122_9" x1="1329.69" y1="1470.55" x2="918.345" y2="1982.48" gradientUnits="userSpaceOnUse">
<stop offset="0.302083" stop-color="#FF3DB1" stop-opacity="0.65"/>
<stop offset="1" stop-color="#FF3DB1" stop-opacity="0.15"/>
</linearGradient>
<linearGradient id="paint38_linear_122_9" x1="1322.09" y1="1483.76" x2="888.661" y2="2023.18" gradientUnits="userSpaceOnUse">
<stop offset="0.302083" stop-color="#FF3DB1" stop-opacity="0.65"/>
<stop offset="1" stop-color="#FF3DB1" stop-opacity="0.15"/>
</linearGradient>
<linearGradient id="paint39_linear_122_9" x1="1314.5" y1="1496.98" x2="858.976" y2="2063.89" gradientUnits="userSpaceOnUse">
<stop offset="0.302083" stop-color="#FF3DB1" stop-opacity="0.65"/>
<stop offset="1" stop-color="#FF3DB1" stop-opacity="0.15"/>
</linearGradient>
<linearGradient id="paint40_linear_122_9" x1="-45.4464" y1="255.265" x2="-94.9227" y2="1159.32" gradientUnits="userSpaceOnUse">
<stop stop-color="#D83DFF" stop-opacity="0.06"/>
<stop offset="0.5" stop-color="#FF3DB1" stop-opacity="0.5"/>
<stop offset="1" stop-color="#FF3DB1" stop-opacity="0"/>
</linearGradient>
<linearGradient id="paint41_linear_122_9" x1="-31.9917" y1="257.887" x2="-106.466" y2="1151.15" gradientUnits="userSpaceOnUse">
<stop stop-color="#D83DFF" stop-opacity="0.06"/>
<stop offset="0.5" stop-color="#FF3DB1" stop-opacity="0.5"/>
<stop offset="1" stop-color="#FF3DB1" stop-opacity="0"/>
</linearGradient>
<linearGradient id="paint42_linear_122_9" x1="-18.5538" y1="260.395" x2="-117.393" y2="1141.92" gradientUnits="userSpaceOnUse">
<stop stop-color="#D83DFF" stop-opacity="0.06"/>
<stop offset="0.5" stop-color="#FF3DB1" stop-opacity="0.5"/>
<stop offset="1" stop-color="#FF3DB1" stop-opacity="0"/>
</linearGradient>
<linearGradient id="paint43_linear_122_9" x1="-5.12888" y1="262.789" x2="-127.646" y2="1131.68" gradientUnits="userSpaceOnUse">
<stop stop-color="#D83DFF" stop-opacity="0.06"/>
<stop offset="0.5" stop-color="#FF3DB1" stop-opacity="0.5"/>
<stop offset="1" stop-color="#FF3DB1" stop-opacity="0"/>
</linearGradient>
<linearGradient id="paint44_linear_122_9" x1="8.28732" y1="265.069" x2="-137.174" y2="1120.49" gradientUnits="userSpaceOnUse">
<stop stop-color="#D83DFF" stop-opacity="0.06"/>
<stop offset="0.5" stop-color="#FF3DB1" stop-opacity="0.5"/>
<stop offset="1" stop-color="#FF3DB1" stop-opacity="0"/>
</linearGradient>
<linearGradient id="paint45_linear_122_9" x1="21.6991" y1="267.236" x2="-145.928" y2="1108.38" gradientUnits="userSpaceOnUse">
<stop stop-color="#D83DFF" stop-opacity="0.06"/>
<stop offset="0.5" stop-color="#FF3DB1" stop-opacity="0.5"/>
<stop offset="1" stop-color="#FF3DB1" stop-opacity="0"/>
</linearGradient>
<linearGradient id="paint46_linear_122_9" x1="35.1109" y1="269.291" x2="-153.863" y2="1095.41" gradientUnits="userSpaceOnUse">
<stop stop-color="#D83DFF" stop-opacity="0.06"/>
<stop offset="0.5" stop-color="#FF3DB1" stop-opacity="0.5"/>
<stop offset="1" stop-color="#FF3DB1" stop-opacity="0"/>
</linearGradient>
<linearGradient id="paint47_linear_122_9" x1="48.5272" y1="271.235" x2="-160.941" y2="1081.65" gradientUnits="userSpaceOnUse">
<stop stop-color="#D83DFF" stop-opacity="0.06"/>
<stop offset="0.5" stop-color="#FF3DB1" stop-opacity="0.5"/>
<stop offset="1" stop-color="#FF3DB1" stop-opacity="0"/>
</linearGradient>
<linearGradient id="paint48_linear_122_9" x1="61.9529" y1="273.071" x2="-167.126" y2="1067.14" gradientUnits="userSpaceOnUse">
<stop stop-color="#D83DFF" stop-opacity="0.06"/>
<stop offset="0.5" stop-color="#FF3DB1" stop-opacity="0.5"/>
<stop offset="1" stop-color="#FF3DB1" stop-opacity="0"/>
</linearGradient>
<linearGradient id="paint49_linear_122_9" x1="75.3933" y1="274.8" x2="-172.388" y2="1051.95" gradientUnits="userSpaceOnUse">
<stop stop-color="#D83DFF" stop-opacity="0.06"/>
<stop offset="0.5" stop-color="#FF3DB1" stop-opacity="0.5"/>
<stop offset="1" stop-color="#FF3DB1" stop-opacity="0"/>
</linearGradient>
<linearGradient id="paint50_linear_122_9" x1="88.8536" y1="276.426" x2="-176.702" y2="1036.14" gradientUnits="userSpaceOnUse">
<stop stop-color="#D83DFF" stop-opacity="0.06"/>
<stop offset="0.5" stop-color="#FF3DB1" stop-opacity="0.5"/>
<stop offset="1" stop-color="#FF3DB1" stop-opacity="0"/>
</linearGradient>
<linearGradient id="paint51_linear_122_9" x1="102.34" y1="277.952" x2="-180.046" y2="1019.77" gradientUnits="userSpaceOnUse">
<stop stop-color="#D83DFF" stop-opacity="0.06"/>
<stop offset="0.5" stop-color="#FF3DB1" stop-opacity="0.5"/>
<stop offset="1" stop-color="#FF3DB1" stop-opacity="0"/>
</linearGradient>
<linearGradient id="paint52_linear_122_9" x1="115.858" y1="279.381" x2="-182.404" y2="1002.91" gradientUnits="userSpaceOnUse">
<stop stop-color="#D83DFF" stop-opacity="0.06"/>
<stop offset="0.5" stop-color="#FF3DB1" stop-opacity="0.5"/>
<stop offset="1" stop-color="#FF3DB1" stop-opacity="0"/>
</linearGradient>
<linearGradient id="paint53_linear_122_9" x1="129.415" y1="280.72" x2="-183.763" y2="985.63" gradientUnits="userSpaceOnUse">
<stop stop-color="#D83DFF" stop-opacity="0.06"/>
<stop offset="0.5" stop-color="#FF3DB1" stop-opacity="0.5"/>
<stop offset="1" stop-color="#FF3DB1" stop-opacity="0"/>
</linearGradient>
<linearGradient id="paint54_linear_122_9" x1="143.019" y1="281.975" x2="-184.116" y2="967.983" gradientUnits="userSpaceOnUse">
<stop stop-color="#D83DFF" stop-opacity="0.06"/>
<stop offset="0.5" stop-color="#FF3DB1" stop-opacity="0.5"/>
<stop offset="1" stop-color="#FF3DB1" stop-opacity="0"/>
</linearGradient>
<linearGradient id="paint55_linear_122_9" x1="156.678" y1="283.152" x2="-183.456" y2="950.038" gradientUnits="userSpaceOnUse">
<stop stop-color="#D83DFF" stop-opacity="0.06"/>
<stop offset="0.5" stop-color="#FF3DB1" stop-opacity="0.5"/>
<stop offset="1" stop-color="#FF3DB1" stop-opacity="0"/>
</linearGradient>
<linearGradient id="paint56_linear_122_9" x1="170.401" y1="284.261" x2="-181.783" y2="931.858" gradientUnits="userSpaceOnUse">
<stop stop-color="#D83DFF" stop-opacity="0.06"/>
<stop offset="0.5" stop-color="#FF3DB1" stop-opacity="0.5"/>
<stop offset="1" stop-color="#FF3DB1" stop-opacity="0"/>
</linearGradient>
<linearGradient id="paint57_linear_122_9" x1="184.199" y1="285.312" x2="-179.097" y2="913.508" gradientUnits="userSpaceOnUse">
<stop stop-color="#D83DFF" stop-opacity="0.06"/>
<stop offset="0.5" stop-color="#FF3DB1" stop-opacity="0.5"/>
<stop offset="1" stop-color="#FF3DB1" stop-opacity="0"/>
</linearGradient>
<linearGradient id="paint58_linear_122_9" x1="198.082" y1="286.318" x2="-175.402" y2="895.051" gradientUnits="userSpaceOnUse">
<stop stop-color="#D83DFF" stop-opacity="0.06"/>
<stop offset="0.5" stop-color="#FF3DB1" stop-opacity="0.5"/>
<stop offset="1" stop-color="#FF3DB1" stop-opacity="0"/>
</linearGradient>
<linearGradient id="paint59_linear_122_9" x1="212.063" y1="287.294" x2="-170.704" y2="876.551" gradientUnits="userSpaceOnUse">
<stop stop-color="#D83DFF" stop-opacity="0.06"/>
<stop offset="0.5" stop-color="#FF3DB1" stop-opacity="0.5"/>
<stop offset="1" stop-color="#FF3DB1" stop-opacity="0"/>
</linearGradient>
<linearGradient id="paint60_linear_122_9" x1="226.15" y1="288.255" x2="-165.013" y2="858.067" gradientUnits="userSpaceOnUse">
<stop stop-color="#D83DFF" stop-opacity="0.06"/>
<stop offset="0.5" stop-color="#FF3DB1" stop-opacity="0.5"/>
<stop offset="1" stop-color="#FF3DB1" stop-opacity="0"/>
</linearGradient>
<linearGradient id="paint61_linear_122_9" x1="240.353" y1="289.217" x2="-158.345" y2="839.659" gradientUnits="userSpaceOnUse">
<stop stop-color="#D83DFF" stop-opacity="0.06"/>
<stop offset="0.5" stop-color="#FF3DB1" stop-opacity="0.5"/>
<stop offset="1" stop-color="#FF3DB1" stop-opacity="0"/>
</linearGradient>
<linearGradient id="paint62_linear_122_9" x1="254.673" y1="290.192" x2="-150.722" y2="821.379" gradientUnits="userSpaceOnUse">
<stop stop-color="#D83DFF" stop-opacity="0.06"/>
<stop offset="0.5" stop-color="#FF3DB1" stop-opacity="0.5"/>
<stop offset="1" stop-color="#FF3DB1" stop-opacity="0"/>
</linearGradient>
<linearGradient id="paint63_linear_122_9" x1="269.768" y1="291.722" x2="-141.512" y2="803.804" gradientUnits="userSpaceOnUse">
<stop stop-color="#D83DFF" stop-opacity="0.06"/>
<stop offset="0.5" stop-color="#FF3DB1" stop-opacity="0.5"/>
<stop offset="1" stop-color="#FF3DB1" stop-opacity="0"/>
</linearGradient>
<linearGradient id="paint64_linear_122_9" x1="285.488" y1="293.771" x2="-130.896" y2="786.935" gradientUnits="userSpaceOnUse">
<stop stop-color="#D83DFF" stop-opacity="0.06"/>
<stop offset="0.5" stop-color="#FF3DB1" stop-opacity="0.5"/>
<stop offset="1" stop-color="#FF3DB1" stop-opacity="0"/>
</linearGradient>
<linearGradient id="paint65_linear_122_9" x1="301.271" y1="295.924" x2="-119.462" y2="770.386" gradientUnits="userSpaceOnUse">
<stop stop-color="#D83DFF" stop-opacity="0.06"/>
<stop offset="0.5" stop-color="#FF3DB1" stop-opacity="0.5"/>
<stop offset="1" stop-color="#FF3DB1" stop-opacity="0"/>
</linearGradient>
<linearGradient id="paint66_linear_122_9" x1="317.097" y1="298.172" x2="-107.262" y2="754.176" gradientUnits="userSpaceOnUse">
<stop stop-color="#D83DFF" stop-opacity="0.06"/>
<stop offset="0.5" stop-color="#FF3DB1" stop-opacity="0.5"/>
<stop offset="1" stop-color="#FF3DB1" stop-opacity="0"/>
</linearGradient>
<linearGradient id="paint67_linear_122_9" x1="332.946" y1="300.507" x2="-94.3453" y2="738.322" gradientUnits="userSpaceOnUse">
<stop stop-color="#D83DFF" stop-opacity="0.06"/>
<stop offset="0.5" stop-color="#FF3DB1" stop-opacity="0.5"/>
<stop offset="1" stop-color="#FF3DB1" stop-opacity="0"/>
</linearGradient>
<linearGradient id="paint68_linear_122_9" x1="348.805" y1="302.922" x2="-80.7577" y2="722.839" gradientUnits="userSpaceOnUse">
<stop stop-color="#D83DFF" stop-opacity="0.06"/>
<stop offset="0.5" stop-color="#FF3DB1" stop-opacity="0.5"/>
<stop offset="1" stop-color="#FF3DB1" stop-opacity="0"/>
</linearGradient>
<linearGradient id="paint69_linear_122_9" x1="364.661" y1="305.41" x2="-66.5418" y2="707.741" gradientUnits="userSpaceOnUse">
<stop stop-color="#D83DFF" stop-opacity="0.06"/>
<stop offset="0.5" stop-color="#FF3DB1" stop-opacity="0.5"/>
<stop offset="1" stop-color="#FF3DB1" stop-opacity="0"/>
</linearGradient>
<linearGradient id="paint70_linear_122_9" x1="380.505" y1="307.968" x2="-51.7376" y2="693.041" gradientUnits="userSpaceOnUse">
<stop stop-color="#D83DFF" stop-opacity="0.06"/>
<stop offset="0.5" stop-color="#FF3DB1" stop-opacity="0.5"/>
<stop offset="1" stop-color="#FF3DB1" stop-opacity="0"/>
</linearGradient>
<linearGradient id="paint71_linear_122_9" x1="396.33" y1="310.59" x2="-36.3831" y2="678.748" gradientUnits="userSpaceOnUse">
<stop stop-color="#D83DFF" stop-opacity="0.06"/>
<stop offset="0.5" stop-color="#FF3DB1" stop-opacity="0.5"/>
<stop offset="1" stop-color="#FF3DB1" stop-opacity="0"/>
</linearGradient>
<linearGradient id="paint72_linear_122_9" x1="412.131" y1="313.273" x2="-20.5143" y2="664.873" gradientUnits="userSpaceOnUse">
<stop stop-color="#D83DFF" stop-opacity="0.06"/>
<stop offset="0.5" stop-color="#FF3DB1" stop-opacity="0.5"/>
<stop offset="1" stop-color="#FF3DB1" stop-opacity="0"/>
</linearGradient>
<linearGradient id="paint73_linear_122_9" x1="427.901" y1="316.015" x2="-4.1658" y2="651.421" gradientUnits="userSpaceOnUse">
<stop stop-color="#D83DFF" stop-opacity="0.06"/>
<stop offset="0.5" stop-color="#FF3DB1" stop-opacity="0.5"/>
<stop offset="1" stop-color="#FF3DB1" stop-opacity="0"/>
</linearGradient>
<linearGradient id="paint74_linear_122_9" x1="443.636" y1="318.813" x2="12.6293" y2="638.4" gradientUnits="userSpaceOnUse">
<stop stop-color="#D83DFF" stop-opacity="0.06"/>
<stop offset="0.5" stop-color="#FF3DB1" stop-opacity="0.5"/>
<stop offset="1" stop-color="#FF3DB1" stop-opacity="0"/>
</linearGradient>
<linearGradient id="paint75_linear_122_9" x1="459.334" y1="321.664" x2="29.8392" y2="625.813" gradientUnits="userSpaceOnUse">
<stop stop-color="#D83DFF" stop-opacity="0.06"/>
<stop offset="0.5" stop-color="#FF3DB1" stop-opacity="0.5"/>
<stop offset="1" stop-color="#FF3DB1" stop-opacity="0"/>
</linearGradient>
<linearGradient id="paint76_linear_122_9" x1="475.016" y1="324.604" x2="47.4589" y2="613.701" gradientUnits="userSpaceOnUse">
<stop stop-color="#D83DFF" stop-opacity="0.06"/>
<stop offset="0.5" stop-color="#FF3DB1" stop-opacity="0.5"/>
<stop offset="1" stop-color="#FF3DB1" stop-opacity="0"/>
</linearGradient>
<linearGradient id="paint77_linear_122_9" x1="490.83" y1="327.869" x2="65.6099" y2="602.302" gradientUnits="userSpaceOnUse">
<stop stop-color="#D83DFF" stop-opacity="0.06"/>
<stop offset="0.5" stop-color="#FF3DB1" stop-opacity="0.5"/>
<stop offset="1" stop-color="#FF3DB1" stop-opacity="0"/>
</linearGradient>
<linearGradient id="paint78_linear_122_9" x1="506.583" y1="331.188" x2="84.0736" y2="591.348" gradientUnits="userSpaceOnUse">
<stop stop-color="#D83DFF" stop-opacity="0.06"/>
<stop offset="0.5" stop-color="#FF3DB1" stop-opacity="0.5"/>
<stop offset="1" stop-color="#FF3DB1" stop-opacity="0"/>
</linearGradient>
<linearGradient id="paint79_linear_122_9" x1="522.272" y1="334.559" x2="102.824" y2="580.837" gradientUnits="userSpaceOnUse">
<stop stop-color="#D83DFF" stop-opacity="0.06"/>
<stop offset="0.5" stop-color="#FF3DB1" stop-opacity="0.5"/>
<stop offset="1" stop-color="#FF3DB1" stop-opacity="0"/>
</linearGradient>
<linearGradient id="paint80_linear_122_9" x1="537.895" y1="337.978" x2="121.835" y2="570.766" gradientUnits="userSpaceOnUse">
<stop stop-color="#D83DFF" stop-opacity="0.06"/>
<stop offset="0.5" stop-color="#FF3DB1" stop-opacity="0.5"/>
<stop offset="1" stop-color="#FF3DB1" stop-opacity="0"/>
</linearGradient>
<linearGradient id="paint81_linear_122_9" x1="553.45" y1="341.444" x2="141.084" y2="561.131" gradientUnits="userSpaceOnUse">
<stop stop-color="#D83DFF" stop-opacity="0.06"/>
<stop offset="0.5" stop-color="#FF3DB1" stop-opacity="0.5"/>
<stop offset="1" stop-color="#FF3DB1" stop-opacity="0"/>
</linearGradient>
<linearGradient id="paint82_linear_122_9" x1="568.936" y1="344.952" x2="160.546" y2="551.926" gradientUnits="userSpaceOnUse">
<stop stop-color="#D83DFF" stop-opacity="0.06"/>
<stop offset="0.5" stop-color="#FF3DB1" stop-opacity="0.5"/>
<stop offset="1" stop-color="#FF3DB1" stop-opacity="0"/>
</linearGradient>
<linearGradient id="paint83_linear_122_9" x1="584.349" y1="348.502" x2="180.2" y2="543.145" gradientUnits="userSpaceOnUse">
<stop stop-color="#D83DFF" stop-opacity="0.06"/>
<stop offset="0.5" stop-color="#FF3DB1" stop-opacity="0.5"/>
<stop offset="1" stop-color="#FF3DB1" stop-opacity="0"/>
</linearGradient>
<linearGradient id="paint84_linear_122_9" x1="599.689" y1="352.089" x2="200.025" y2="534.783" gradientUnits="userSpaceOnUse">
<stop stop-color="#D83DFF" stop-opacity="0.06"/>
<stop offset="0.5" stop-color="#FF3DB1" stop-opacity="0.5"/>
<stop offset="1" stop-color="#FF3DB1" stop-opacity="0"/>
</linearGradient>
<linearGradient id="paint85_linear_122_9" x1="614.953" y1="355.71" x2="220.001" y2="526.83" gradientUnits="userSpaceOnUse">
<stop stop-color="#D83DFF" stop-opacity="0.06"/>
<stop offset="0.5" stop-color="#FF3DB1" stop-opacity="0.5"/>
<stop offset="1" stop-color="#FF3DB1" stop-opacity="0"/>
</linearGradient>
<linearGradient id="paint86_linear_122_9" x1="630.139" y1="359.363" x2="240.111" y2="519.28" gradientUnits="userSpaceOnUse">
<stop stop-color="#D83DFF" stop-opacity="0.06"/>
<stop offset="0.5" stop-color="#FF3DB1" stop-opacity="0.5"/>
<stop offset="1" stop-color="#FF3DB1" stop-opacity="0"/>
</linearGradient>
<linearGradient id="paint87_linear_122_9" x1="645.247" y1="363.044" x2="260.336" y2="512.123" gradientUnits="userSpaceOnUse">
<stop stop-color="#D83DFF" stop-opacity="0.06"/>
<stop offset="0.5" stop-color="#FF3DB1" stop-opacity="0.5"/>
<stop offset="1" stop-color="#FF3DB1" stop-opacity="0"/>
</linearGradient>
<linearGradient id="paint88_linear_122_9" x1="660.274" y1="366.749" x2="280.66" y2="505.35" gradientUnits="userSpaceOnUse">
<stop stop-color="#D83DFF" stop-opacity="0.06"/>
<stop offset="0.5" stop-color="#FF3DB1" stop-opacity="0.5"/>
<stop offset="1" stop-color="#FF3DB1" stop-opacity="0"/>
</linearGradient>
<linearGradient id="paint89_linear_122_9" x1="675.218" y1="370.476" x2="301.068" y2="498.953" gradientUnits="userSpaceOnUse">
<stop stop-color="#D83DFF" stop-opacity="0.06"/>
<stop offset="0.5" stop-color="#FF3DB1" stop-opacity="0.5"/>
<stop offset="1" stop-color="#FF3DB1" stop-opacity="0"/>
</linearGradient>
<linearGradient id="paint90_linear_122_9" x1="706.149" y1="381.01" x2="338.411" y2="529.23" gradientUnits="userSpaceOnUse">
<stop stop-color="#D83DFF" stop-opacity="0.06"/>
<stop offset="0.5" stop-color="#FF3DB1" stop-opacity="0.5"/>
<stop offset="1" stop-color="#FF3DB1" stop-opacity="0"/>
</linearGradient>
<linearGradient id="paint91_linear_122_9" x1="722.009" y1="387.28" x2="356.95" y2="566.674" gradientUnits="userSpaceOnUse">
<stop stop-color="#D83DFF" stop-opacity="0.06"/>
<stop offset="0.5" stop-color="#FF3DB1" stop-opacity="0.5"/>
<stop offset="1" stop-color="#FF3DB1" stop-opacity="0"/>
</linearGradient>
<linearGradient id="paint92_linear_122_9" x1="737.625" y1="393.055" x2="377.609" y2="605.337" gradientUnits="userSpaceOnUse">
<stop stop-color="#D83DFF" stop-opacity="0.06"/>
<stop offset="0.5" stop-color="#FF3DB1" stop-opacity="0.5"/>
<stop offset="1" stop-color="#FF3DB1" stop-opacity="0"/>
</linearGradient>
<linearGradient id="paint93_linear_122_9" x1="752.966" y1="398.362" x2="400.924" y2="645.201" gradientUnits="userSpaceOnUse">
<stop stop-color="#D83DFF" stop-opacity="0.06"/>
<stop offset="0.5" stop-color="#FF3DB1" stop-opacity="0.5"/>
<stop offset="1" stop-color="#FF3DB1" stop-opacity="0"/>
</linearGradient>
<linearGradient id="paint94_linear_122_9" x1="768.001" y1="403.233" x2="427.505" y2="686.116" gradientUnits="userSpaceOnUse">
<stop stop-color="#D83DFF" stop-opacity="0.06"/>
<stop offset="0.5" stop-color="#FF3DB1" stop-opacity="0.5"/>
<stop offset="1" stop-color="#FF3DB1" stop-opacity="0"/>
</linearGradient>
<linearGradient id="paint95_linear_122_9" x1="782.702" y1="407.703" x2="458.01" y2="727.752" gradientUnits="userSpaceOnUse">
<stop stop-color="#D83DFF" stop-opacity="0.06"/>
<stop offset="0.5" stop-color="#FF3DB1" stop-opacity="0.5"/>
<stop offset="1" stop-color="#FF3DB1" stop-opacity="0"/>
</linearGradient>
<linearGradient id="paint96_linear_122_9" x1="797.043" y1="411.807" x2="493.094" y2="769.562" gradientUnits="userSpaceOnUse">
<stop stop-color="#D83DFF" stop-opacity="0.06"/>
<stop offset="0.5" stop-color="#FF3DB1" stop-opacity="0.5"/>
<stop offset="1" stop-color="#FF3DB1" stop-opacity="0"/>
</linearGradient>
<linearGradient id="paint97_linear_122_9" x1="811.002" y1="415.586" x2="533.344" y2="810.75" gradientUnits="userSpaceOnUse">
<stop stop-color="#D83DFF" stop-opacity="0.06"/>
<stop offset="0.5" stop-color="#FF3DB1" stop-opacity="0.5"/>
<stop offset="1" stop-color="#FF3DB1" stop-opacity="0"/>
</linearGradient>
<linearGradient id="paint98_linear_122_9" x1="824.556" y1="419.081" x2="579.181" y2="850.265" gradientUnits="userSpaceOnUse">
<stop stop-color="#D83DFF" stop-opacity="0.06"/>
<stop offset="0.5" stop-color="#FF3DB1" stop-opacity="0.5"/>
<stop offset="1" stop-color="#FF3DB1" stop-opacity="0"/>
</linearGradient>
<linearGradient id="paint99_linear_122_9" x1="837.689" y1="422.336" x2="630.753" y2="886.838" gradientUnits="userSpaceOnUse">
<stop stop-color="#D83DFF" stop-opacity="0.06"/>
<stop offset="0.5" stop-color="#FF3DB1" stop-opacity="0.5"/>
<stop offset="1" stop-color="#FF3DB1" stop-opacity="0"/>
</linearGradient>
<linearGradient id="paint100_linear_122_9" x1="850.386" y1="425.397" x2="687.831" y2="919.064" gradientUnits="userSpaceOnUse">
<stop stop-color="#D83DFF" stop-opacity="0.06"/>
<stop offset="0.5" stop-color="#FF3DB1" stop-opacity="0.5"/>
<stop offset="1" stop-color="#FF3DB1" stop-opacity="0"/>
</linearGradient>
<linearGradient id="paint101_linear_122_9" x1="862.634" y1="428.311" x2="749.739" y2="945.541" gradientUnits="userSpaceOnUse">
<stop stop-color="#D83DFF" stop-opacity="0.06"/>
<stop offset="0.5" stop-color="#FF3DB1" stop-opacity="0.5"/>
<stop offset="1" stop-color="#FF3DB1" stop-opacity="0"/>
</linearGradient>
<linearGradient id="paint102_linear_122_9" x1="874.425" y1="431.124" x2="815.345" y2="965.043" gradientUnits="userSpaceOnUse">
<stop stop-color="#D83DFF" stop-opacity="0.06"/>
<stop offset="0.5" stop-color="#FF3DB1" stop-opacity="0.5"/>
<stop offset="1" stop-color="#FF3DB1" stop-opacity="0"/>
</linearGradient>
<linearGradient id="paint103_linear_122_9" x1="885.755" y1="433.887" x2="883.132" y2="976.698" gradientUnits="userSpaceOnUse">
<stop stop-color="#D83DFF" stop-opacity="0.06"/>
<stop offset="0.5" stop-color="#FF3DB1" stop-opacity="0.5"/>
<stop offset="1" stop-color="#FF3DB1" stop-opacity="0"/>
</linearGradient>
<linearGradient id="paint104_linear_122_9" x1="896.619" y1="436.647" x2="951.352" y2="980.122" gradientUnits="userSpaceOnUse">
<stop stop-color="#D83DFF" stop-opacity="0.06"/>
<stop offset="0.5" stop-color="#FF3DB1" stop-opacity="0.5"/>
<stop offset="1" stop-color="#FF3DB1" stop-opacity="0"/>
</linearGradient>
<linearGradient id="paint105_linear_122_9" x1="907.021" y1="439.454" x2="1018.22" y2="975.479" gradientUnits="userSpaceOnUse">
<stop stop-color="#D83DFF" stop-opacity="0.06"/>
<stop offset="0.5" stop-color="#FF3DB1" stop-opacity="0.5"/>
<stop offset="1" stop-color="#FF3DB1" stop-opacity="0"/>
</linearGradient>
<linearGradient id="paint106_linear_122_9" x1="916.962" y1="442.356" x2="1082.12" y2="963.441" gradientUnits="userSpaceOnUse">
<stop stop-color="#D83DFF" stop-opacity="0.06"/>
<stop offset="0.5" stop-color="#FF3DB1" stop-opacity="0.5"/>
<stop offset="1" stop-color="#FF3DB1" stop-opacity="0"/>
</linearGradient>
<linearGradient id="paint107_linear_122_9" x1="926.452" y1="445.401" x2="1141.78" y2="945.072" gradientUnits="userSpaceOnUse">
<stop stop-color="#D83DFF" stop-opacity="0.06"/>
<stop offset="0.5" stop-color="#FF3DB1" stop-opacity="0.5"/>
<stop offset="1" stop-color="#FF3DB1" stop-opacity="0"/>
</linearGradient>
<linearGradient id="paint108_linear_122_9" x1="935.501" y1="448.637" x2="1196.33" y2="921.664" gradientUnits="userSpaceOnUse">
<stop stop-color="#D83DFF" stop-opacity="0.06"/>
<stop offset="0.5" stop-color="#FF3DB1" stop-opacity="0.5"/>
<stop offset="1" stop-color="#FF3DB1" stop-opacity="0"/>
</linearGradient>
<linearGradient id="paint109_linear_122_9" x1="944.122" y1="452.108" x2="1245.35" y2="894.572" gradientUnits="userSpaceOnUse">
<stop stop-color="#D83DFF" stop-opacity="0.06"/>
<stop offset="0.5" stop-color="#FF3DB1" stop-opacity="0.5"/>
<stop offset="1" stop-color="#FF3DB1" stop-opacity="0"/>
</linearGradient>
<linearGradient id="paint110_linear_122_9" x1="952.332" y1="455.859" x2="1288.76" y2="865.07" gradientUnits="userSpaceOnUse">
<stop stop-color="#D83DFF" stop-opacity="0.06"/>
<stop offset="0.5" stop-color="#FF3DB1" stop-opacity="0.5"/>
<stop offset="1" stop-color="#FF3DB1" stop-opacity="0"/>
</linearGradient>
<linearGradient id="paint111_linear_122_9" x1="960.151" y1="459.932" x2="1326.82" y2="834.267" gradientUnits="userSpaceOnUse">
<stop stop-color="#D83DFF" stop-opacity="0.06"/>
<stop offset="0.5" stop-color="#FF3DB1" stop-opacity="0.5"/>
<stop offset="1" stop-color="#FF3DB1" stop-opacity="0"/>
</linearGradient>
<linearGradient id="paint112_linear_122_9" x1="967.6" y1="464.366" x2="1359.96" y2="803.054" gradientUnits="userSpaceOnUse">
<stop stop-color="#D83DFF" stop-opacity="0.06"/>
<stop offset="0.5" stop-color="#FF3DB1" stop-opacity="0.5"/>
<stop offset="1" stop-color="#FF3DB1" stop-opacity="0"/>
</linearGradient>
<linearGradient id="paint113_linear_122_9" x1="974.706" y1="469.199" x2="1388.72" y2="772.095" gradientUnits="userSpaceOnUse">
<stop stop-color="#D83DFF" stop-opacity="0.06"/>
<stop offset="0.5" stop-color="#FF3DB1" stop-opacity="0.5"/>
<stop offset="1" stop-color="#FF3DB1" stop-opacity="0"/>
</linearGradient>
<linearGradient id="paint114_linear_122_9" x1="981.495" y1="474.466" x2="1413.7" y2="741.848" gradientUnits="userSpaceOnUse">
<stop stop-color="#D83DFF" stop-opacity="0.06"/>
<stop offset="0.5" stop-color="#FF3DB1" stop-opacity="0.5"/>
<stop offset="1" stop-color="#FF3DB1" stop-opacity="0"/>
</linearGradient>
<linearGradient id="paint115_linear_122_9" x1="987.996" y1="480.196" x2="1435.45" y2="712.588" gradientUnits="userSpaceOnUse">
<stop stop-color="#D83DFF" stop-opacity="0.06"/>
<stop offset="0.5" stop-color="#FF3DB1" stop-opacity="0.5"/>
<stop offset="1" stop-color="#FF3DB1" stop-opacity="0"/>
</linearGradient>
<linearGradient id="paint116_linear_122_9" x1="994.241" y1="486.42" x2="1454.53" y2="684.443" gradientUnits="userSpaceOnUse">
<stop stop-color="#D83DFF" stop-opacity="0.06"/>
<stop offset="0.5" stop-color="#FF3DB1" stop-opacity="0.5"/>
<stop offset="1" stop-color="#FF3DB1" stop-opacity="0"/>
</linearGradient>
<linearGradient id="paint117_linear_122_9" x1="1000.26" y1="493.161" x2="1471.4" y2="657.424" gradientUnits="userSpaceOnUse">
<stop stop-color="#D83DFF" stop-opacity="0.06"/>
<stop offset="0.5" stop-color="#FF3DB1" stop-opacity="0.5"/>
<stop offset="1" stop-color="#FF3DB1" stop-opacity="0"/>
</linearGradient>
<linearGradient id="paint118_linear_122_9" x1="1006.1" y1="500.44" x2="1486.45" y2="631.451" gradientUnits="userSpaceOnUse">
<stop stop-color="#D83DFF" stop-opacity="0.06"/>
<stop offset="0.5" stop-color="#FF3DB1" stop-opacity="0.5"/>
<stop offset="1" stop-color="#FF3DB1" stop-opacity="0"/>
</linearGradient>
<linearGradient id="paint119_linear_122_9" x1="1011.78" y1="508.276" x2="1500.02" y2="606.376" gradientUnits="userSpaceOnUse">
<stop stop-color="#D83DFF" stop-opacity="0.06"/>
<stop offset="0.5" stop-color="#FF3DB1" stop-opacity="0.5"/>
<stop offset="1" stop-color="#FF3DB1" stop-opacity="0"/>
</linearGradient>
<linearGradient id="paint120_linear_122_9" x1="1017.35" y1="516.681" x2="1512.37" y2="582.002" gradientUnits="userSpaceOnUse">
<stop stop-color="#D83DFF" stop-opacity="0.06"/>
<stop offset="0.5" stop-color="#FF3DB1" stop-opacity="0.5"/>
<stop offset="1" stop-color="#FF3DB1" stop-opacity="0"/>
</linearGradient>
<linearGradient id="paint121_linear_122_9" x1="1022.84" y1="525.664" x2="1523.66" y2="558.093" gradientUnits="userSpaceOnUse">
<stop stop-color="#D83DFF" stop-opacity="0.06"/>
<stop offset="0.5" stop-color="#FF3DB1" stop-opacity="0.5"/>
<stop offset="1" stop-color="#FF3DB1" stop-opacity="0"/>
</linearGradient>
<linearGradient id="paint122_linear_122_9" x1="1028.3" y1="535.232" x2="1534.01" y2="534.383" gradientUnits="userSpaceOnUse">
<stop stop-color="#D83DFF" stop-opacity="0.06"/>
<stop offset="0.5" stop-color="#FF3DB1" stop-opacity="0.5"/>
<stop offset="1" stop-color="#FF3DB1" stop-opacity="0"/>
</linearGradient>
<linearGradient id="paint123_linear_122_9" x1="1033.75" y1="545.386" x2="1543.45" y2="510.589" gradientUnits="userSpaceOnUse">
<stop stop-color="#D83DFF" stop-opacity="0.06"/>
<stop offset="0.5" stop-color="#FF3DB1" stop-opacity="0.5"/>
<stop offset="1" stop-color="#FF3DB1" stop-opacity="0"/>
</linearGradient>
<linearGradient id="paint124_linear_122_9" x1="1039.25" y1="556.122" x2="1551.92" y2="486.416" gradientUnits="userSpaceOnUse">
<stop stop-color="#D83DFF" stop-opacity="0.06"/>
<stop offset="0.5" stop-color="#FF3DB1" stop-opacity="0.5"/>
<stop offset="1" stop-color="#FF3DB1" stop-opacity="0"/>
</linearGradient>
<linearGradient id="paint125_linear_122_9" x1="1044.82" y1="567.435" x2="1559.3" y2="461.565" gradientUnits="userSpaceOnUse">
<stop stop-color="#D83DFF" stop-opacity="0.06"/>
<stop offset="0.5" stop-color="#FF3DB1" stop-opacity="0.5"/>
<stop offset="1" stop-color="#FF3DB1" stop-opacity="0"/>
</linearGradient>
<linearGradient id="paint126_linear_122_9" x1="1050.51" y1="579.312" x2="1565.37" y2="435.746" gradientUnits="userSpaceOnUse">
<stop stop-color="#D83DFF" stop-opacity="0.06"/>
<stop offset="0.5" stop-color="#FF3DB1" stop-opacity="0.5"/>
<stop offset="1" stop-color="#FF3DB1" stop-opacity="0"/>
</linearGradient>
<linearGradient id="paint127_linear_122_9" x1="1056.36" y1="591.74" x2="1569.8" y2="408.693" gradientUnits="userSpaceOnUse">
<stop stop-color="#D83DFF" stop-opacity="0.06"/>
<stop offset="0.5" stop-color="#FF3DB1" stop-opacity="0.5"/>
<stop offset="1" stop-color="#FF3DB1" stop-opacity="0"/>
</linearGradient>
<linearGradient id="paint128_linear_122_9" x1="1062.39" y1="604.7" x2="1572.16" y2="380.185" gradientUnits="userSpaceOnUse">
<stop stop-color="#D83DFF" stop-opacity="0.06"/>
<stop offset="0.5" stop-color="#FF3DB1" stop-opacity="0.5"/>
<stop offset="1" stop-color="#FF3DB1" stop-opacity="0"/>
</linearGradient>
<linearGradient id="paint129_linear_122_9" x1="1068.65" y1="618.169" x2="1571.9" y2="350.074" gradientUnits="userSpaceOnUse">
<stop stop-color="#D83DFF" stop-opacity="0.06"/>
<stop offset="0.5" stop-color="#FF3DB1" stop-opacity="0.5"/>
<stop offset="1" stop-color="#FF3DB1" stop-opacity="0"/>
</linearGradient>
<linearGradient id="paint130_linear_122_9" x1="1075.16" y1="632.122" x2="1568.37" y2="318.323" gradientUnits="userSpaceOnUse">
<stop stop-color="#D83DFF" stop-opacity="0.06"/>
<stop offset="0.5" stop-color="#FF3DB1" stop-opacity="0.5"/>
<stop offset="1" stop-color="#FF3DB1" stop-opacity="0"/>
</linearGradient>
<linearGradient id="paint131_linear_122_9" x1="1081.97" y1="646.528" x2="1560.79" y2="285.051" gradientUnits="userSpaceOnUse">
<stop stop-color="#D83DFF" stop-opacity="0.06"/>
<stop offset="0.5" stop-color="#FF3DB1" stop-opacity="0.5"/>
<stop offset="1" stop-color="#FF3DB1" stop-opacity="0"/>
</linearGradient>
<linearGradient id="paint132_linear_122_9" x1="1089.09" y1="661.357" x2="1548.31" y2="250.589" gradientUnits="userSpaceOnUse">
<stop stop-color="#D83DFF" stop-opacity="0.06"/>
<stop offset="0.5" stop-color="#FF3DB1" stop-opacity="0.5"/>
<stop offset="1" stop-color="#FF3DB1" stop-opacity="0"/>
</linearGradient>
<linearGradient id="paint133_linear_122_9" x1="1096.56" y1="676.572" x2="1530.06" y2="215.533" gradientUnits="userSpaceOnUse">
<stop stop-color="#D83DFF" stop-opacity="0.06"/>
<stop offset="0.5" stop-color="#FF3DB1" stop-opacity="0.5"/>
<stop offset="1" stop-color="#FF3DB1" stop-opacity="0"/>
</linearGradient>
<linearGradient id="paint134_linear_122_9" x1="1104.4" y1="692.134" x2="1505.2" y2="180.79" gradientUnits="userSpaceOnUse">
<stop stop-color="#D83DFF" stop-opacity="0.06"/>
<stop offset="0.5" stop-color="#FF3DB1" stop-opacity="0.5"/>
<stop offset="1" stop-color="#FF3DB1" stop-opacity="0"/>
</linearGradient>
<linearGradient id="paint135_linear_122_9" x1="1112.63" y1="708.005" x2="1473.05" y2="147.61" gradientUnits="userSpaceOnUse">
<stop stop-color="#D83DFF" stop-opacity="0.06"/>
<stop offset="0.5" stop-color="#FF3DB1" stop-opacity="0.5"/>
<stop offset="1" stop-color="#FF3DB1" stop-opacity="0"/>
</linearGradient>
<linearGradient id="paint136_linear_122_9" x1="1121.27" y1="724.14" x2="1433.24" y2="117.558" gradientUnits="userSpaceOnUse">
<stop stop-color="#D83DFF" stop-opacity="0.06"/>
<stop offset="0.5" stop-color="#FF3DB1" stop-opacity="0.5"/>
<stop offset="1" stop-color="#FF3DB1" stop-opacity="0"/>
</linearGradient>
<linearGradient id="paint137_linear_122_9" x1="1130.34" y1="740.496" x2="1385.81" y2="92.4464" gradientUnits="userSpaceOnUse">
<stop stop-color="#D83DFF" stop-opacity="0.06"/>
<stop offset="0.5" stop-color="#FF3DB1" stop-opacity="0.5"/>
<stop offset="1" stop-color="#FF3DB1" stop-opacity="0"/>
</linearGradient>
<linearGradient id="paint138_linear_122_9" x1="1139.85" y1="757.025" x2="1331.39" y2="74.1764" gradientUnits="userSpaceOnUse">
<stop stop-color="#D83DFF" stop-opacity="0.06"/>
<stop offset="0.5" stop-color="#FF3DB1" stop-opacity="0.5"/>
<stop offset="1" stop-color="#FF3DB1" stop-opacity="0"/>
</linearGradient>
<linearGradient id="paint139_linear_122_9" x1="1149.82" y1="773.682" x2="1271.21" y2="64.5319" gradientUnits="userSpaceOnUse">
<stop stop-color="#D83DFF" stop-opacity="0.06"/>
<stop offset="0.5" stop-color="#FF3DB1" stop-opacity="0.5"/>
<stop offset="1" stop-color="#FF3DB1" stop-opacity="0"/>
</linearGradient>
</defs>
</svg>
